<!--?xml version="1.0" standalone="no"?-->
              <svg id="sw-js-blob-svg" viewBox="0 0 100 100" xmlns="http://www.w3.org/2000/svg" version="1.1">
                    <defs> 
                        <linearGradient id="sw-gradient" x1="0" x2="1" y1="1" y2="0">
                            <stop id="stop1" stop-color="rgba(248, 117, 55, 1)" offset="0%"></stop>
                            <stop id="stop2" stop-color="rgba(251, 168, 31, 1)" offset="100%"></stop>
                        </linearGradient>
                    </defs>
                <path fill="url(#sw-gradient)" d="M18.9,-19.1C26.6,-16.1,36.2,-12.1,40.5,-4.7C44.7,2.7,43.5,13.6,37.7,20.2C32,26.8,21.7,29.2,12.3,31.8C2.8,34.4,-5.9,37.2,-14.6,35.9C-23.4,34.6,-32.3,29.2,-35.8,21.5C-39.3,13.7,-37.5,3.7,-35.9,-6.5C-34.2,-16.6,-32.8,-27,-26.8,-30.3C-20.9,-33.6,-10.4,-29.8,-2.4,-26.9C5.6,-24,11.2,-22,18.9,-19.1Z" width="100%" height="100%" transform="translate(50 50)" stroke-width="0" style="transition: all 0.3s ease 0s;" stroke="url(#sw-gradient)"></path>
              </svg>