<?xml version="1.0" encoding="UTF-8"?>
<svg xmlns="http://www.w3.org/2000/svg" xmlns:xlink="http://www.w3.org/1999/xlink" width="13pt" height="12pt" viewBox="0 0 13 12" version="1.1">
<g id="surface1">
<path style=" stroke:none;fill-rule:evenodd;fill:rgb(14.509804%,73.72549%,64.313725%);fill-opacity:1;" d="M 5.386719 2.800781 L 6 2.800781 L 6 2.511719 L 5.386719 2.511719 Z M 5.386719 2.800781 "/>
<path style=" stroke:none;fill-rule:evenodd;fill:rgb(14.509804%,73.72549%,64.313725%);fill-opacity:1;" d="M 6.304688 2.800781 L 7.84375 2.800781 L 7.84375 2.511719 L 6.304688 2.511719 Z M 6.304688 2.800781 "/>
<path style=" stroke:none;fill-rule:evenodd;fill:rgb(14.509804%,73.72549%,64.313725%);fill-opacity:1;" d="M 5.386719 3.378906 L 7.84375 3.378906 L 7.84375 3.089844 L 5.386719 3.089844 Z M 5.386719 3.378906 "/>
<path style=" stroke:none;fill-rule:evenodd;fill:rgb(98.823529%,70.196078%,16.078431%);fill-opacity:1;" d="M 3.925781 9.171875 L 3.964844 9.15625 L 3.984375 9.136719 L 4.003906 9.101562 L 4.003906 7.867188 L 4.042969 7.886719 L 4.097656 7.90625 L 4.136719 7.925781 L 4.195312 7.941406 L 4.234375 7.960938 L 4.289062 7.976562 L 4.328125 7.996094 L 4.386719 8.015625 L 4.425781 8.03125 L 4.464844 8.03125 L 4.464844 10.042969 L 3.542969 10.042969 L 3.542969 9.171875 Z M 3.65625 7.742188 L 3.695312 7.742188 L 3.695312 8.882812 L 3.082031 8.882812 L 3.082031 7.722656 Z M 5.402344 5.84375 L 5.421875 5.789062 L 5.441406 5.75 L 5.480469 5.734375 L 5.597656 5.734375 L 5.632812 5.75 L 5.652344 5.789062 L 5.671875 5.84375 L 5.671875 8.160156 L 5.652344 8.214844 L 5.632812 8.25 L 5.597656 8.269531 L 5.480469 8.269531 L 5.441406 8.25 L 5.421875 8.214844 L 5.402344 8.160156 Z M 3.867188 6.53125 L 3.925781 6.511719 L 3.964844 6.492188 L 4.023438 6.476562 L 4.0625 6.457031 L 4.117188 6.441406 L 4.15625 6.421875 L 4.214844 6.402344 L 4.253906 6.386719 L 4.308594 6.367188 L 4.347656 6.347656 L 4.40625 6.332031 L 4.445312 6.3125 L 4.503906 6.292969 L 4.539062 6.277344 L 4.597656 6.257812 L 4.636719 6.242188 L 4.695312 6.222656 L 4.734375 6.203125 L 4.789062 6.1875 L 4.828125 6.167969 L 4.886719 6.148438 L 4.925781 6.132812 L 4.980469 6.113281 L 5.019531 6.09375 L 5.078125 6.078125 L 5.078125 7.925781 L 5.019531 7.90625 L 4.980469 7.886719 L 4.925781 7.871094 L 4.886719 7.851562 L 4.828125 7.832031 L 4.789062 7.816406 L 4.734375 7.796875 L 4.695312 7.777344 L 4.636719 7.761719 L 4.597656 7.742188 L 4.539062 7.726562 L 4.503906 7.707031 L 4.445312 7.6875 L 4.40625 7.671875 L 4.347656 7.652344 L 4.308594 7.632812 L 4.253906 7.617188 L 4.214844 7.597656 L 4.15625 7.578125 L 4.117188 7.5625 L 4.0625 7.542969 L 4.023438 7.527344 L 3.964844 7.507812 L 3.925781 7.488281 L 3.867188 7.472656 Z M 3.234375 6.566406 L 3.542969 6.566406 L 3.542969 7.433594 L 3.234375 7.433594 Z M 2.640625 6.710938 L 2.660156 6.65625 L 2.679688 6.621094 L 2.71875 6.601562 L 2.773438 6.585938 L 2.929688 6.566406 L 2.929688 7.4375 L 2.773438 7.417969 L 2.71875 7.398438 L 2.679688 7.382812 L 2.660156 7.34375 L 2.640625 7.289062 Z M 6.09375 7.128906 L 6.074219 7.164062 L 6.058594 7.183594 L 6.039062 7.199219 L 6.019531 7.21875 L 6.019531 6.785156 L 6.039062 6.800781 L 6.074219 6.835938 L 6.09375 6.875 L 6.113281 6.910156 L 6.113281 7.089844 Z M 4.386719 5.988281 L 4.328125 6.003906 L 4.289062 6.023438 L 4.234375 6.042969 L 4.195312 6.058594 L 4.136719 6.078125 L 4.097656 6.09375 L 4.042969 6.113281 L 4.003906 6.132812 L 3.945312 6.148438 L 3.90625 6.167969 L 3.847656 6.1875 L 3.8125 6.203125 L 3.753906 6.222656 L 3.714844 6.242188 L 3.65625 6.257812 L 3.542969 6.277344 L 3.542969 1.933594 L 4.464844 1.933594 L 4.464844 5.96875 L 4.425781 5.96875 Z M 5.347656 5.425781 L 5.308594 5.445312 L 5.289062 5.460938 L 5.25 5.480469 L 5.230469 5.5 L 5.210938 5.515625 L 5.15625 5.570312 L 5.136719 5.605469 L 5.117188 5.625 L 5.097656 5.660156 L 5.078125 5.714844 L 5.058594 5.734375 L 5 5.75 L 4.960938 5.769531 L 4.90625 5.789062 L 4.867188 5.804688 L 4.808594 5.824219 L 4.769531 5.84375 L 4.769531 1.933594 L 8.457031 1.933594 L 8.457031 3.308594 L 8.476562 3.34375 L 8.496094 3.363281 L 8.53125 3.378906 L 8.6875 3.378906 L 8.726562 3.363281 L 8.742188 3.34375 L 8.761719 3.308594 L 8.78125 3.289062 L 8.800781 3.273438 L 8.820312 3.234375 L 8.839844 3.21875 L 8.859375 3.199219 L 8.878906 3.164062 L 8.917969 3.125 L 8.9375 3.089844 L 8.957031 3.074219 L 8.972656 3.054688 L 8.992188 3.019531 L 9.03125 2.980469 L 9.050781 2.945312 L 9.089844 2.945312 L 9.109375 2.980469 L 9.148438 3.019531 L 9.167969 3.054688 L 9.183594 3.074219 L 9.203125 3.089844 L 9.222656 3.125 L 9.261719 3.164062 L 9.28125 3.199219 L 9.300781 3.21875 L 9.320312 3.234375 L 9.339844 3.273438 L 9.359375 3.289062 L 9.378906 3.308594 L 9.398438 3.34375 L 9.414062 3.363281 L 9.453125 3.378906 L 9.609375 3.378906 L 9.644531 3.363281 L 9.664062 3.34375 L 9.683594 3.308594 L 9.683594 1.929688 L 10.144531 1.949219 L 10.203125 1.96875 L 10.242188 1.984375 L 10.261719 2.023438 L 10.28125 2.078125 L 10.28125 9.898438 L 10.261719 9.953125 L 10.242188 9.988281 L 10.203125 10.003906 L 10.144531 10.023438 L 4.769531 10.042969 L 4.773438 8.15625 L 4.808594 8.175781 L 4.867188 8.195312 L 4.90625 8.214844 L 4.960938 8.230469 L 5 8.25 L 5.058594 8.269531 L 5.078125 8.285156 L 5.097656 8.339844 L 5.117188 8.375 L 5.136719 8.394531 L 5.15625 8.429688 L 5.175781 8.449219 L 5.191406 8.46875 L 5.210938 8.484375 L 5.230469 8.503906 L 5.25 8.519531 L 5.289062 8.539062 L 5.308594 8.558594 L 5.347656 8.574219 L 5.402344 8.59375 L 5.671875 8.59375 L 5.730469 8.574219 L 5.769531 8.558594 L 5.789062 8.539062 L 5.828125 8.519531 L 5.847656 8.503906 L 5.863281 8.484375 L 5.882812 8.46875 L 5.921875 8.429688 L 5.941406 8.414062 L 5.960938 8.375 L 5.980469 8.339844 L 6 8.285156 L 6 7.5625 L 6.058594 7.5625 L 6.113281 7.542969 L 6.152344 7.527344 L 6.171875 7.507812 L 6.210938 7.488281 L 6.230469 7.472656 L 6.25 7.453125 L 6.289062 7.433594 L 6.304688 7.417969 L 6.324219 7.382812 L 6.363281 7.34375 L 6.382812 7.308594 L 6.402344 7.289062 L 6.421875 7.253906 L 6.460938 7.144531 L 6.460938 6.855469 L 6.421875 6.746094 L 6.382812 6.675781 L 6.34375 6.636719 L 6.324219 6.601562 L 6.304688 6.585938 L 6.289062 6.566406 L 6.25 6.546875 L 6.230469 6.53125 L 6.210938 6.511719 L 6.171875 6.492188 L 6.152344 6.476562 L 6.113281 6.457031 L 6.058594 6.441406 L 6 6.441406 L 6 5.714844 L 5.980469 5.660156 L 5.941406 5.589844 L 5.902344 5.550781 L 5.882812 5.535156 L 5.828125 5.480469 L 5.789062 5.460938 L 5.769531 5.445312 L 5.730469 5.425781 L 5.671875 5.40625 L 5.402344 5.40625 Z M 8.957031 2.527344 L 8.9375 2.546875 L 8.917969 2.582031 L 8.878906 2.621094 L 8.859375 2.65625 L 8.839844 2.675781 L 8.820312 2.691406 L 8.800781 2.726562 L 8.78125 2.746094 L 8.761719 1.933594 L 9.378906 1.933594 L 9.359375 2.746094 L 9.339844 2.726562 L 9.320312 2.691406 L 9.300781 2.675781 L 9.28125 2.65625 L 9.261719 2.621094 L 9.222656 2.582031 L 9.203125 2.546875 L 9.183594 2.527344 L 9.148438 2.511719 L 8.992188 2.511719 Z M 3.273438 1.660156 L 3.253906 1.679688 L 3.234375 1.714844 L 3.234375 6.277344 L 2.640625 6.277344 L 2.582031 6.292969 L 2.542969 6.3125 L 2.507812 6.332031 L 2.488281 6.347656 L 2.449219 6.386719 L 2.429688 6.402344 L 2.390625 6.441406 L 2.371094 6.457031 L 2.351562 6.492188 L 2.332031 6.53125 L 2.3125 6.585938 L 2.3125 7.417969 L 2.332031 7.472656 L 2.371094 7.542969 L 2.390625 7.5625 L 2.410156 7.578125 L 2.449219 7.617188 L 2.46875 7.632812 L 2.507812 7.671875 L 2.542969 7.6875 L 2.582031 7.707031 L 2.640625 7.726562 L 2.773438 7.726562 L 2.773438 9.101562 L 2.792969 9.136719 L 2.8125 9.15625 L 2.851562 9.171875 L 3.234375 9.171875 L 3.234375 10.257812 L 3.253906 10.296875 L 3.273438 10.3125 L 3.3125 10.332031 L 10.28125 10.332031 L 10.335938 10.3125 L 10.375 10.296875 L 10.414062 10.277344 L 10.433594 10.257812 L 10.453125 10.242188 L 10.492188 10.203125 L 10.511719 10.1875 L 10.527344 10.167969 L 10.546875 10.152344 L 10.566406 10.113281 L 10.585938 10.078125 L 10.605469 10.023438 L 10.605469 1.949219 L 10.585938 1.894531 L 10.546875 1.824219 L 10.527344 1.804688 L 10.511719 1.785156 L 10.492188 1.769531 L 10.472656 1.75 L 10.453125 1.734375 L 10.414062 1.695312 L 10.375 1.679688 L 10.335938 1.660156 L 10.28125 1.640625 L 3.3125 1.640625 Z M 3.273438 1.660156 "/>
<path style=" stroke:none;fill-rule:evenodd;fill:rgb(14.509804%,73.72549%,64.313725%);fill-opacity:1;" d="M 5.386719 4.25 L 6.921875 4.25 L 6.921875 3.960938 L 5.386719 3.960938 Z M 5.386719 4.25 "/>
<path style=" stroke:none;fill-rule:evenodd;fill:rgb(14.509804%,73.72549%,64.313725%);fill-opacity:1;" d="M 7.226562 4.25 L 9.683594 4.25 L 9.683594 3.960938 L 7.226562 3.960938 Z M 7.226562 4.25 "/>
<path style=" stroke:none;fill-rule:evenodd;fill:rgb(14.509804%,73.72549%,64.313725%);fill-opacity:1;" d="M 5.386719 4.828125 L 7.84375 4.828125 L 7.84375 4.539062 L 5.386719 4.539062 Z M 5.386719 4.828125 "/>
<path style=" stroke:none;fill-rule:evenodd;fill:rgb(14.509804%,73.72549%,64.313725%);fill-opacity:1;" d="M 8.148438 4.828125 L 9.683594 4.828125 L 9.683594 4.539062 L 8.148438 4.539062 Z M 8.148438 4.828125 "/>
<path style=" stroke:none;fill-rule:evenodd;fill:rgb(14.509804%,73.72549%,64.313725%);fill-opacity:1;" d="M 6 5.40625 L 9.683594 5.40625 L 9.683594 5.117188 L 6 5.117188 Z M 6 5.40625 "/>
<path style=" stroke:none;fill-rule:evenodd;fill:rgb(14.509804%,73.72549%,64.313725%);fill-opacity:1;" d="M 8.148438 5.988281 L 9.683594 5.988281 L 9.683594 5.695312 L 8.148438 5.695312 Z M 8.148438 5.988281 "/>
<path style=" stroke:none;fill-rule:evenodd;fill:rgb(98.823529%,70.196078%,16.078431%);fill-opacity:1;" d="M 6.996094 5.679688 L 6.976562 5.695312 L 6.960938 5.714844 L 6.941406 5.734375 L 6.921875 5.75 L 6.882812 5.789062 L 6.863281 5.804688 L 6.824219 5.84375 L 6.804688 5.859375 L 6.785156 5.878906 L 6.765625 5.894531 L 6.746094 5.914062 L 6.730469 5.933594 L 6.710938 5.949219 L 6.671875 5.988281 L 6.652344 6.003906 L 6.613281 6.042969 L 6.59375 6.058594 L 6.574219 6.078125 L 6.554688 6.09375 L 6.460938 6.1875 L 6.441406 6.203125 L 6.402344 6.242188 L 6.382812 6.257812 L 6.382812 6.3125 L 6.402344 6.332031 L 6.421875 6.347656 L 6.460938 6.386719 L 6.480469 6.402344 L 6.5 6.421875 L 6.515625 6.441406 L 6.535156 6.457031 L 6.554688 6.476562 L 6.574219 6.492188 L 6.632812 6.492188 L 6.652344 6.476562 L 6.671875 6.457031 L 6.691406 6.441406 L 6.785156 6.347656 L 6.804688 6.332031 L 6.84375 6.292969 L 6.863281 6.277344 L 6.882812 6.257812 L 6.902344 6.242188 L 6.941406 6.203125 L 6.960938 6.1875 L 6.976562 6.167969 L 6.996094 6.148438 L 7.015625 6.132812 L 7.054688 6.09375 L 7.074219 6.078125 L 7.09375 6.058594 L 7.113281 6.042969 L 7.152344 6.003906 L 7.171875 5.988281 L 7.1875 5.96875 L 7.207031 5.949219 L 7.226562 5.933594 L 7.265625 5.894531 L 7.265625 5.859375 L 7.246094 5.84375 L 7.207031 5.804688 L 7.1875 5.789062 L 7.171875 5.769531 L 7.152344 5.75 L 7.132812 5.734375 L 7.09375 5.695312 L 7.074219 5.679688 L 7.054688 5.660156 L 7.015625 5.660156 Z M 6.996094 5.679688 "/>
<path style=" stroke:none;fill-rule:evenodd;fill:rgb(14.509804%,73.72549%,64.313725%);fill-opacity:1;" d="M 8.148438 6.566406 L 9.683594 6.566406 L 9.683594 6.277344 L 8.148438 6.277344 Z M 8.148438 6.566406 "/>
<path style=" stroke:none;fill-rule:evenodd;fill:rgb(14.509804%,73.72549%,64.313725%);fill-opacity:1;" d="M 8.148438 7.144531 L 9.683594 7.144531 L 9.683594 6.855469 L 8.148438 6.855469 Z M 8.148438 7.144531 "/>
<path style=" stroke:none;fill-rule:evenodd;fill:rgb(98.823529%,70.196078%,16.078431%);fill-opacity:1;" d="M 6.765625 7.144531 L 7.6875 7.144531 L 7.6875 6.855469 L 6.765625 6.855469 Z M 6.765625 7.144531 "/>
<path style=" stroke:none;fill-rule:evenodd;fill:rgb(14.509804%,73.72549%,64.313725%);fill-opacity:1;" d="M 8.148438 7.726562 L 9.683594 7.726562 L 9.683594 7.433594 L 8.148438 7.433594 Z M 8.148438 7.726562 "/>
<path style=" stroke:none;fill-rule:evenodd;fill:rgb(98.823529%,70.196078%,16.078431%);fill-opacity:1;" d="M 6.554688 7.527344 L 6.535156 7.542969 L 6.460938 7.617188 L 6.441406 7.632812 L 6.402344 7.671875 L 6.382812 7.6875 L 6.382812 7.742188 L 6.402344 7.761719 L 6.421875 7.777344 L 6.460938 7.816406 L 6.480469 7.832031 L 6.5 7.851562 L 6.515625 7.871094 L 6.535156 7.886719 L 6.574219 7.925781 L 6.59375 7.941406 L 6.613281 7.960938 L 6.632812 7.976562 L 6.671875 8.015625 L 6.691406 8.03125 L 6.785156 8.125 L 6.804688 8.140625 L 6.824219 8.160156 L 6.84375 8.175781 L 6.882812 8.214844 L 6.902344 8.230469 L 6.941406 8.269531 L 6.960938 8.285156 L 6.976562 8.304688 L 6.996094 8.320312 L 7.015625 8.339844 L 7.054688 8.339844 L 7.074219 8.320312 L 7.09375 8.304688 L 7.113281 8.285156 L 7.132812 8.269531 L 7.226562 8.175781 L 7.246094 8.160156 L 7.265625 8.140625 L 7.265625 8.105469 L 7.246094 8.085938 L 7.226562 8.070312 L 7.132812 7.976562 L 7.113281 7.960938 L 7.09375 7.941406 L 7.074219 7.925781 L 7.035156 7.886719 L 7.015625 7.871094 L 6.921875 7.777344 L 6.902344 7.761719 L 6.882812 7.742188 L 6.863281 7.726562 L 6.824219 7.6875 L 6.804688 7.671875 L 6.765625 7.632812 L 6.746094 7.617188 L 6.730469 7.597656 L 6.710938 7.578125 L 6.691406 7.5625 L 6.671875 7.542969 L 6.652344 7.527344 L 6.632812 7.507812 L 6.574219 7.507812 Z M 6.554688 7.527344 "/>
<path style=" stroke:none;fill-rule:evenodd;fill:rgb(14.509804%,73.72549%,64.313725%);fill-opacity:1;" d="M 8.148438 8.304688 L 9.683594 8.304688 L 9.683594 8.015625 L 8.148438 8.015625 Z M 8.148438 8.304688 "/>
<path style=" stroke:none;fill-rule:evenodd;fill:rgb(14.509804%,73.72549%,64.313725%);fill-opacity:1;" d="M 6.304688 8.882812 L 8.761719 8.882812 L 8.761719 8.59375 L 6.304688 8.59375 Z M 6.304688 8.882812 "/>
<path style=" stroke:none;fill-rule:evenodd;fill:rgb(14.509804%,73.72549%,64.313725%);fill-opacity:1;" d="M 9.070312 8.882812 L 9.683594 8.882812 L 9.683594 8.59375 L 9.070312 8.59375 Z M 9.070312 8.882812 "/>
<path style=" stroke:none;fill-rule:evenodd;fill:rgb(14.509804%,73.72549%,64.313725%);fill-opacity:1;" d="M 5.386719 9.460938 L 9.683594 9.460938 L 9.683594 9.171875 L 5.386719 9.171875 Z M 5.386719 9.460938 "/>
</g>
</svg>
