<?xml version="1.0" encoding="UTF-8"?>
<svg xmlns="http://www.w3.org/2000/svg" xmlns:xlink="http://www.w3.org/1999/xlink" width="13pt" height="12pt" viewBox="0 0 13 12" version="1.1">
<g id="surface1">
<path style=" stroke:none;fill-rule:evenodd;fill:rgb(60.784314%,98.823529%,100%);fill-opacity:1;" d="M 2.191406 4.234375 L 2.175781 4.25 L 2.15625 4.285156 L 2.136719 4.300781 L 2.121094 4.335938 L 2.101562 4.351562 L 2.082031 4.386719 L 2.066406 4.40625 L 2.046875 4.4375 L 2.027344 4.457031 L 2.011719 4.492188 L 1.992188 4.507812 L 1.972656 4.542969 L 1.957031 4.558594 L 1.9375 4.59375 L 1.917969 4.609375 L 1.902344 4.644531 L 1.902344 4.664062 L 1.917969 4.679688 L 1.957031 4.695312 L 1.972656 4.714844 L 2.011719 4.730469 L 2.027344 4.75 L 2.066406 4.765625 L 2.082031 4.78125 L 2.121094 4.800781 L 2.136719 4.816406 L 2.175781 4.835938 L 2.191406 4.851562 L 2.230469 4.867188 L 2.246094 4.886719 L 2.285156 4.902344 L 2.320312 4.921875 L 2.339844 4.9375 L 2.375 4.953125 L 2.394531 4.972656 L 2.429688 4.988281 L 2.449219 5.007812 L 2.484375 5.023438 L 2.503906 5.039062 L 2.539062 5.058594 L 2.558594 5.074219 L 2.59375 5.09375 L 2.613281 5.109375 L 2.648438 5.125 L 2.667969 5.144531 L 2.703125 5.160156 L 2.738281 5.179688 L 2.757812 5.179688 L 2.792969 5.144531 L 2.8125 5.109375 L 2.832031 5.09375 L 2.847656 5.058594 L 2.867188 5.039062 L 2.886719 5.007812 L 2.902344 4.988281 L 2.921875 4.953125 L 2.941406 4.9375 L 2.957031 4.902344 L 2.976562 4.886719 L 2.996094 4.851562 L 3.011719 4.835938 L 3.03125 4.800781 L 3.050781 4.78125 L 3.066406 4.75 L 3.066406 4.730469 L 3.050781 4.714844 L 3.011719 4.695312 L 2.996094 4.679688 L 2.957031 4.664062 L 2.941406 4.644531 L 2.902344 4.628906 L 2.886719 4.609375 L 2.847656 4.59375 L 2.832031 4.578125 L 2.792969 4.558594 L 2.777344 4.542969 L 2.738281 4.523438 L 2.722656 4.507812 L 2.683594 4.492188 L 2.648438 4.472656 L 2.628906 4.457031 L 2.59375 4.4375 L 2.574219 4.421875 L 2.539062 4.40625 L 2.519531 4.386719 L 2.484375 4.371094 L 2.464844 4.351562 L 2.429688 4.335938 L 2.410156 4.320312 L 2.375 4.300781 L 2.355469 4.285156 L 2.320312 4.265625 L 2.300781 4.25 L 2.265625 4.234375 L 2.230469 4.214844 L 2.210938 4.214844 Z M 2.191406 4.234375 "/>
<path style=" stroke:none;fill-rule:evenodd;fill:rgb(45.882353%,88.627451%,97.254902%);fill-opacity:1;" d="M 10.65625 4.234375 L 10.617188 4.25 L 10.601562 4.265625 L 10.5625 4.285156 L 10.546875 4.300781 L 10.507812 4.320312 L 10.492188 4.335938 L 10.453125 4.351562 L 10.4375 4.371094 L 10.398438 4.386719 L 10.382812 4.40625 L 10.34375 4.421875 L 10.328125 4.4375 L 10.289062 4.457031 L 10.273438 4.472656 L 10.234375 4.492188 L 10.199219 4.507812 L 10.179688 4.523438 L 10.144531 4.542969 L 10.125 4.558594 L 10.089844 4.578125 L 10.070312 4.59375 L 10.035156 4.609375 L 10.015625 4.628906 L 9.980469 4.644531 L 9.960938 4.664062 L 9.925781 4.679688 L 9.90625 4.695312 L 9.871094 4.714844 L 9.851562 4.730469 L 9.851562 4.75 L 9.871094 4.78125 L 9.886719 4.800781 L 9.90625 4.835938 L 9.925781 4.851562 L 9.941406 4.886719 L 9.960938 4.902344 L 9.980469 4.9375 L 9.996094 4.953125 L 10.015625 4.988281 L 10.035156 5.007812 L 10.050781 5.039062 L 10.070312 5.058594 L 10.089844 5.09375 L 10.109375 5.109375 L 10.125 5.144531 L 10.144531 5.160156 L 10.164062 5.179688 L 10.179688 5.179688 L 10.21875 5.160156 L 10.253906 5.144531 L 10.273438 5.125 L 10.308594 5.109375 L 10.328125 5.09375 L 10.363281 5.074219 L 10.382812 5.058594 L 10.417969 5.039062 L 10.4375 5.023438 L 10.472656 5.007812 L 10.492188 4.988281 L 10.527344 4.972656 L 10.546875 4.953125 L 10.582031 4.9375 L 10.601562 4.921875 L 10.636719 4.902344 L 10.671875 4.886719 L 10.691406 4.867188 L 10.726562 4.851562 L 10.746094 4.835938 L 10.78125 4.816406 L 10.800781 4.800781 L 10.835938 4.78125 L 10.855469 4.765625 L 10.890625 4.75 L 10.910156 4.730469 L 10.945312 4.714844 L 10.964844 4.695312 L 11 4.679688 L 11.019531 4.664062 L 11.019531 4.644531 L 11 4.609375 L 10.984375 4.59375 L 10.964844 4.558594 L 10.945312 4.542969 L 10.929688 4.507812 L 10.910156 4.492188 L 10.890625 4.457031 L 10.875 4.4375 L 10.855469 4.40625 L 10.835938 4.386719 L 10.820312 4.351562 L 10.800781 4.335938 L 10.78125 4.300781 L 10.765625 4.285156 L 10.746094 4.25 L 10.726562 4.234375 L 10.710938 4.214844 L 10.691406 4.214844 Z M 10.65625 4.234375 "/>
<path style=" stroke:none;fill-rule:evenodd;fill:rgb(60.784314%,98.823529%,100%);fill-opacity:1;" d="M 1.789062 6.246094 L 2.902344 6.246094 L 2.902344 5.730469 L 1.789062 5.730469 Z M 1.789062 6.246094 "/>
<path style=" stroke:none;fill-rule:evenodd;fill:rgb(45.882353%,88.627451%,97.254902%);fill-opacity:1;" d="M 10.015625 6.246094 L 11.128906 6.246094 L 11.128906 5.730469 L 10.015625 5.730469 Z M 10.015625 6.246094 "/>
<path style=" stroke:none;fill-rule:evenodd;fill:rgb(19.607843%,22.352941%,24.705882%);fill-opacity:1;" d="M 7.28125 7.242188 L 7.300781 7.242188 L 7.355469 7.226562 L 7.390625 7.207031 L 7.425781 7.191406 L 7.445312 7.171875 L 7.480469 7.15625 L 7.5 7.140625 L 7.535156 7.121094 L 7.554688 7.105469 L 7.589844 7.070312 L 7.609375 7.054688 L 7.664062 7 L 7.683594 6.96875 L 7.699219 6.949219 L 7.71875 6.914062 L 7.738281 6.898438 L 7.753906 6.863281 L 7.773438 6.828125 L 7.792969 6.777344 L 7.808594 6.742188 L 7.828125 6.675781 L 7.828125 2.183594 L 7.808594 2.117188 L 7.792969 2.082031 L 7.773438 2.03125 L 7.753906 1.996094 L 7.738281 1.960938 L 7.71875 1.945312 L 7.699219 1.910156 L 7.683594 1.894531 L 7.664062 1.859375 L 7.628906 1.824219 L 7.609375 1.808594 L 7.554688 1.753906 L 7.535156 1.738281 L 7.5 1.722656 L 7.480469 1.703125 L 7.445312 1.6875 L 7.425781 1.667969 L 7.355469 1.636719 L 7.300781 1.617188 L 7.28125 1.617188 Z M 7.28125 7.242188 "/>
<path style=" stroke:none;fill-rule:evenodd;fill:rgb(100%,39.607843%,9.803922%);fill-opacity:1;" d="M 7.828125 5.730469 L 8.375 5.730469 L 8.375 9.359375 L 7.28125 9.359375 L 7.28125 10.390625 L 8.832031 10.390625 L 8.902344 10.375 L 8.957031 10.355469 L 8.996094 10.339844 L 9.03125 10.320312 L 9.066406 10.304688 L 9.085938 10.289062 L 9.121094 10.269531 L 9.140625 10.253906 L 9.175781 10.234375 L 9.195312 10.21875 L 9.230469 10.183594 L 9.25 10.167969 L 9.304688 10.113281 L 9.324219 10.082031 L 9.339844 10.0625 L 9.359375 10.027344 L 9.378906 10.011719 L 9.394531 9.976562 L 9.414062 9.941406 L 9.433594 9.890625 L 9.449219 9.855469 L 9.46875 9.789062 L 9.46875 5.300781 L 9.449219 5.230469 L 9.433594 5.195312 L 9.414062 5.144531 L 9.394531 5.109375 L 9.378906 5.074219 L 9.359375 5.039062 L 9.339844 5.023438 L 9.324219 5.007812 L 9.304688 4.972656 L 9.269531 4.9375 L 9.25 4.921875 L 9.195312 4.867188 L 9.175781 4.851562 L 9.140625 4.835938 L 9.105469 4.800781 L 9.066406 4.78125 L 8.996094 4.75 L 8.957031 4.730469 L 8.902344 4.714844 L 8.832031 4.695312 L 7.828125 4.695312 Z M 7.828125 5.730469 "/>
<path style=" stroke:none;fill-rule:evenodd;fill:rgb(27.843137%,30.588235%,32.941176%);fill-opacity:1;" d="M 4.015625 1.601562 L 3.980469 1.617188 L 3.925781 1.636719 L 3.886719 1.652344 L 3.851562 1.667969 L 3.832031 1.6875 L 3.796875 1.703125 L 3.777344 1.722656 L 3.742188 1.738281 L 3.722656 1.753906 L 3.707031 1.773438 L 3.6875 1.789062 L 3.652344 1.824219 L 3.632812 1.839844 L 3.613281 1.859375 L 3.597656 1.894531 L 3.578125 1.910156 L 3.558594 1.945312 L 3.542969 1.960938 L 3.503906 2.03125 L 3.488281 2.082031 L 3.46875 2.117188 L 3.449219 2.183594 L 3.449219 6.675781 L 3.46875 6.742188 L 3.488281 6.777344 L 3.503906 6.828125 L 3.542969 6.898438 L 3.558594 6.914062 L 3.578125 6.949219 L 3.597656 6.96875 L 3.613281 7 L 3.632812 7.019531 L 3.652344 7.035156 L 3.667969 7.054688 L 3.707031 7.085938 L 3.722656 7.105469 L 3.742188 7.121094 L 3.777344 7.140625 L 3.796875 7.15625 L 3.832031 7.171875 L 3.851562 7.191406 L 3.886719 7.207031 L 3.925781 7.226562 L 3.980469 7.242188 L 4.015625 7.261719 L 4.089844 7.277344 L 5.09375 7.277344 L 5.09375 6.246094 L 4.546875 6.246094 L 4.546875 2.617188 L 6.734375 2.617188 L 6.734375 6.246094 L 6.1875 6.246094 L 6.1875 7.277344 L 7.171875 7.277344 L 7.246094 7.261719 L 7.28125 7.242188 L 7.28125 1.617188 L 7.246094 1.601562 L 7.171875 1.582031 L 4.089844 1.582031 Z M 4.015625 1.601562 "/>
<path style=" stroke:none;fill-rule:evenodd;fill:rgb(60.784314%,98.823529%,100%);fill-opacity:1;" d="M 2.703125 6.8125 L 2.667969 6.828125 L 2.648438 6.847656 L 2.613281 6.863281 L 2.59375 6.882812 L 2.558594 6.898438 L 2.539062 6.914062 L 2.503906 6.933594 L 2.484375 6.949219 L 2.449219 6.96875 L 2.429688 6.984375 L 2.394531 7 L 2.375 7.019531 L 2.339844 7.035156 L 2.320312 7.054688 L 2.285156 7.070312 L 2.246094 7.085938 L 2.230469 7.105469 L 2.191406 7.121094 L 2.175781 7.140625 L 2.136719 7.15625 L 2.121094 7.171875 L 2.082031 7.191406 L 2.066406 7.207031 L 2.027344 7.226562 L 2.011719 7.242188 L 1.972656 7.261719 L 1.957031 7.277344 L 1.917969 7.292969 L 1.902344 7.3125 L 1.902344 7.328125 L 1.917969 7.363281 L 1.9375 7.378906 L 1.957031 7.414062 L 1.972656 7.433594 L 1.992188 7.464844 L 2.011719 7.484375 L 2.027344 7.519531 L 2.046875 7.535156 L 2.066406 7.570312 L 2.082031 7.585938 L 2.101562 7.621094 L 2.121094 7.636719 L 2.136719 7.671875 L 2.15625 7.691406 L 2.175781 7.722656 L 2.191406 7.742188 L 2.210938 7.757812 L 2.230469 7.757812 L 2.265625 7.742188 L 2.300781 7.722656 L 2.320312 7.707031 L 2.355469 7.691406 L 2.375 7.671875 L 2.410156 7.65625 L 2.429688 7.636719 L 2.464844 7.621094 L 2.484375 7.605469 L 2.519531 7.585938 L 2.539062 7.570312 L 2.574219 7.550781 L 2.59375 7.535156 L 2.628906 7.519531 L 2.648438 7.5 L 2.683594 7.484375 L 2.722656 7.464844 L 2.738281 7.449219 L 2.777344 7.433594 L 2.792969 7.414062 L 2.832031 7.398438 L 2.847656 7.378906 L 2.886719 7.363281 L 2.902344 7.347656 L 2.941406 7.328125 L 2.957031 7.3125 L 2.996094 7.292969 L 3.011719 7.277344 L 3.050781 7.261719 L 3.066406 7.242188 L 3.066406 7.226562 L 3.050781 7.191406 L 3.03125 7.171875 L 3.011719 7.140625 L 2.996094 7.121094 L 2.976562 7.085938 L 2.957031 7.070312 L 2.941406 7.035156 L 2.921875 7.019531 L 2.902344 6.984375 L 2.886719 6.96875 L 2.867188 6.933594 L 2.847656 6.914062 L 2.832031 6.882812 L 2.8125 6.863281 L 2.792969 6.828125 L 2.777344 6.8125 L 2.757812 6.796875 L 2.738281 6.796875 Z M 2.703125 6.8125 "/>
<path style=" stroke:none;fill-rule:evenodd;fill:rgb(45.882353%,88.627451%,97.254902%);fill-opacity:1;" d="M 10.144531 6.8125 L 10.125 6.828125 L 10.109375 6.863281 L 10.089844 6.882812 L 10.070312 6.914062 L 10.050781 6.933594 L 10.035156 6.96875 L 10.015625 6.984375 L 9.996094 7.019531 L 9.980469 7.035156 L 9.960938 7.070312 L 9.941406 7.085938 L 9.925781 7.121094 L 9.90625 7.140625 L 9.886719 7.171875 L 9.871094 7.191406 L 9.851562 7.226562 L 9.851562 7.242188 L 9.871094 7.261719 L 9.90625 7.277344 L 9.925781 7.292969 L 9.960938 7.3125 L 9.980469 7.328125 L 10.015625 7.347656 L 10.035156 7.363281 L 10.070312 7.378906 L 10.089844 7.398438 L 10.125 7.414062 L 10.144531 7.433594 L 10.179688 7.449219 L 10.199219 7.464844 L 10.234375 7.484375 L 10.273438 7.5 L 10.289062 7.519531 L 10.328125 7.535156 L 10.34375 7.550781 L 10.382812 7.570312 L 10.398438 7.585938 L 10.4375 7.605469 L 10.453125 7.621094 L 10.492188 7.636719 L 10.507812 7.65625 L 10.546875 7.671875 L 10.5625 7.691406 L 10.601562 7.707031 L 10.617188 7.722656 L 10.65625 7.742188 L 10.691406 7.757812 L 10.710938 7.757812 L 10.746094 7.722656 L 10.765625 7.691406 L 10.78125 7.671875 L 10.800781 7.636719 L 10.820312 7.621094 L 10.835938 7.585938 L 10.855469 7.570312 L 10.875 7.535156 L 10.890625 7.519531 L 10.910156 7.484375 L 10.929688 7.464844 L 10.945312 7.433594 L 10.964844 7.414062 L 10.984375 7.378906 L 11 7.363281 L 11.019531 7.328125 L 11.019531 7.3125 L 11 7.292969 L 10.964844 7.277344 L 10.945312 7.261719 L 10.910156 7.242188 L 10.890625 7.226562 L 10.855469 7.207031 L 10.835938 7.191406 L 10.800781 7.171875 L 10.78125 7.15625 L 10.746094 7.140625 L 10.726562 7.121094 L 10.691406 7.105469 L 10.671875 7.085938 L 10.601562 7.054688 L 10.582031 7.035156 L 10.546875 7.019531 L 10.527344 7 L 10.492188 6.984375 L 10.472656 6.96875 L 10.4375 6.949219 L 10.417969 6.933594 L 10.382812 6.914062 L 10.363281 6.898438 L 10.328125 6.882812 L 10.308594 6.863281 L 10.273438 6.847656 L 10.253906 6.828125 L 10.21875 6.8125 L 10.179688 6.796875 L 10.164062 6.796875 Z M 10.144531 6.8125 "/>
<path style=" stroke:none;fill-rule:evenodd;fill:rgb(100%,56.862745%,0%);fill-opacity:1;" d="M 5.65625 4.714844 L 5.621094 4.730469 L 5.566406 4.75 L 5.53125 4.765625 L 5.492188 4.78125 L 5.476562 4.800781 L 5.4375 4.816406 L 5.421875 4.835938 L 5.382812 4.851562 L 5.347656 4.886719 L 5.328125 4.902344 L 5.3125 4.921875 L 5.273438 4.953125 L 5.257812 4.972656 L 5.238281 5.007812 L 5.21875 5.023438 L 5.203125 5.058594 L 5.183594 5.074219 L 5.164062 5.109375 L 5.148438 5.144531 L 5.128906 5.195312 L 5.109375 5.230469 L 5.09375 5.300781 L 5.09375 9.789062 L 5.109375 9.855469 L 5.128906 9.890625 L 5.148438 9.941406 L 5.164062 9.976562 L 5.183594 10.011719 L 5.203125 10.027344 L 5.21875 10.0625 L 5.238281 10.082031 L 5.257812 10.113281 L 5.273438 10.132812 L 5.292969 10.148438 L 5.328125 10.183594 L 5.347656 10.199219 L 5.382812 10.234375 L 5.421875 10.253906 L 5.4375 10.269531 L 5.476562 10.289062 L 5.492188 10.304688 L 5.53125 10.320312 L 5.566406 10.339844 L 5.621094 10.355469 L 5.65625 10.375 L 5.730469 10.390625 L 7.28125 10.390625 L 7.28125 9.359375 L 6.1875 9.359375 L 6.1875 5.730469 L 6.734375 5.730469 L 6.734375 4.695312 L 5.730469 4.695312 Z M 5.65625 4.714844 "/>
</g>
</svg>
