<?xml version="1.0" encoding="UTF-8"?>
<svg xmlns="http://www.w3.org/2000/svg" xmlns:xlink="http://www.w3.org/1999/xlink" width="13pt" height="12pt" viewBox="0 0 13 12" version="1.1">
<g id="surface1">
<path style=" stroke:none;fill-rule:evenodd;fill:rgb(21.568627%,28.235294%,28.235294%);fill-opacity:1;" d="M 2.660156 3.410156 L 2.660156 3.699219 L 4.835938 3.699219 L 4.835938 3.191406 L 2.660156 3.191406 Z M 2.660156 3.410156 "/>
<path style=" stroke:none;fill-rule:evenodd;fill:rgb(98.431373%,47.45098%,28.235294%);fill-opacity:1;" d="M 1.582031 3.699219 L 2.121094 3.699219 L 2.121094 3.191406 L 1.582031 3.191406 Z M 1.582031 3.699219 "/>
<path style=" stroke:none;fill-rule:evenodd;fill:rgb(98.823529%,87.45098%,44.705882%);fill-opacity:1;" d="M 7.226562 1.683594 L 7.207031 1.699219 L 7.1875 1.734375 L 7.171875 1.769531 L 7.152344 1.800781 L 7.136719 1.835938 L 7.117188 1.871094 L 7.097656 1.902344 L 6.757812 2.546875 L 6.363281 2.597656 L 6.273438 2.597656 L 6.164062 2.617188 L 5.914062 2.648438 L 5.804688 2.667969 L 5.679688 2.683594 L 5.644531 2.699219 L 5.644531 2.71875 L 5.660156 2.734375 L 5.679688 2.75 L 5.714844 2.785156 L 5.734375 2.800781 L 5.75 2.820312 L 5.789062 2.851562 L 5.804688 2.871094 L 5.824219 2.886719 L 5.839844 2.902344 L 5.878906 2.921875 L 5.894531 2.9375 L 5.914062 2.953125 L 5.929688 2.972656 L 5.949219 2.988281 L 6.148438 3.175781 L 6.164062 3.191406 L 6.183594 3.207031 L 6.199219 3.226562 L 6.238281 3.257812 L 6.253906 3.277344 L 6.273438 3.292969 L 6.308594 3.328125 L 6.328125 3.34375 L 6.378906 3.394531 L 6.398438 3.410156 L 6.433594 3.445312 L 6.433594 3.460938 L 6.417969 3.5625 L 6.378906 3.765625 L 6.363281 3.867188 L 6.34375 3.96875 L 6.328125 4.074219 L 6.308594 4.15625 L 6.308594 4.175781 L 6.273438 4.480469 L 6.433594 4.410156 L 6.453125 4.410156 L 6.488281 4.394531 L 6.507812 4.378906 L 6.542969 4.359375 L 6.613281 4.328125 L 6.648438 4.308594 L 6.6875 4.292969 L 6.722656 4.277344 L 6.757812 4.257812 L 6.828125 4.226562 L 6.867188 4.207031 L 6.882812 4.191406 L 6.917969 4.175781 L 6.957031 4.15625 L 7.027344 4.125 L 7.0625 4.105469 L 7.097656 4.089844 L 7.136719 4.074219 L 7.171875 4.054688 L 7.242188 4.023438 L 7.261719 4.003906 L 7.261719 1.648438 L 7.242188 1.648438 Z M 7.226562 1.683594 "/>
<path style=" stroke:none;fill-rule:evenodd;fill:rgb(98.431373%,47.45098%,28.235294%);fill-opacity:1;" d="M 1.582031 4.714844 L 2.121094 4.714844 L 2.121094 4.207031 L 1.582031 4.207031 Z M 1.582031 4.714844 "/>
<path style=" stroke:none;fill-rule:evenodd;fill:rgb(21.568627%,28.235294%,28.235294%);fill-opacity:1;" d="M 2.660156 4.5625 L 2.660156 4.714844 L 4.835938 4.714844 L 4.835938 4.207031 L 2.660156 4.207031 Z M 2.660156 4.5625 "/>
<path style=" stroke:none;fill-rule:evenodd;fill:rgb(98.823529%,70.196078%,16.078431%);fill-opacity:1;" d="M 7.261719 4.003906 L 7.277344 4.023438 L 7.316406 4.039062 L 7.351562 4.054688 L 7.386719 4.074219 L 7.457031 4.105469 L 7.496094 4.125 L 7.566406 4.15625 L 7.601562 4.175781 L 7.636719 4.191406 L 7.675781 4.207031 L 7.691406 4.226562 L 7.726562 4.242188 L 7.765625 4.257812 L 7.800781 4.277344 L 8.070312 4.394531 L 8.085938 4.410156 L 8.121094 4.429688 L 8.160156 4.445312 L 8.175781 4.460938 L 8.210938 4.480469 L 8.25 4.480469 L 8.25 4.378906 L 8.230469 4.277344 L 8.160156 3.9375 L 8.160156 3.867188 L 8.121094 3.664062 L 8.105469 3.5625 L 8.085938 3.460938 L 8.085938 3.445312 L 8.105469 3.429688 L 8.121094 3.410156 L 8.160156 3.378906 L 8.175781 3.359375 L 8.195312 3.34375 L 8.230469 3.308594 L 8.25 3.292969 L 8.300781 3.242188 L 8.320312 3.226562 L 8.355469 3.191406 L 8.375 3.175781 L 8.390625 3.15625 L 8.429688 3.125 L 8.445312 3.105469 L 8.464844 3.089844 L 8.5 3.054688 L 8.519531 3.039062 L 8.570312 2.988281 L 8.589844 2.972656 L 8.625 2.9375 L 8.644531 2.921875 L 8.679688 2.902344 L 8.699219 2.886719 L 8.75 2.835938 L 8.769531 2.820312 L 8.804688 2.785156 L 8.824219 2.769531 L 8.839844 2.75 L 8.878906 2.71875 L 8.878906 2.699219 L 8.839844 2.683594 L 8.734375 2.667969 L 8.609375 2.648438 L 8.480469 2.632812 L 8.375 2.617188 L 8.355469 2.617188 L 8.015625 2.5625 L 7.890625 2.546875 L 7.78125 2.53125 L 7.765625 2.511719 L 7.746094 2.480469 L 7.726562 2.445312 L 7.710938 2.429688 L 7.691406 2.394531 L 7.675781 2.359375 L 7.65625 2.328125 L 7.636719 2.292969 L 7.621094 2.257812 L 7.601562 2.226562 L 7.585938 2.191406 L 7.566406 2.15625 L 7.546875 2.125 L 7.53125 2.089844 L 7.511719 2.054688 L 7.496094 2.039062 L 7.476562 2.003906 L 7.457031 1.972656 L 7.441406 1.953125 L 7.316406 1.699219 L 7.296875 1.667969 L 7.277344 1.648438 L 7.261719 1.648438 Z M 7.261719 4.003906 "/>
<path style=" stroke:none;fill-rule:evenodd;fill:rgb(98.823529%,87.45098%,44.705882%);fill-opacity:1;" d="M 6.453125 5.5625 L 6.453125 9.816406 L 7.261719 9.816406 L 7.261719 4.714844 L 6.453125 4.714844 Z M 6.453125 5.5625 "/>
<path style=" stroke:none;fill-rule:evenodd;fill:rgb(21.568627%,28.235294%,28.235294%);fill-opacity:1;" d="M 2.660156 5.734375 L 4.835938 5.734375 L 4.835938 5.222656 L 2.660156 5.222656 Z M 2.660156 5.734375 "/>
<path style=" stroke:none;fill-rule:evenodd;fill:rgb(98.431373%,47.45098%,28.235294%);fill-opacity:1;" d="M 1.582031 5.734375 L 2.121094 5.734375 L 2.121094 5.222656 L 1.582031 5.222656 Z M 1.582031 5.734375 "/>
<path style=" stroke:none;fill-rule:evenodd;fill:rgb(98.431373%,47.45098%,28.235294%);fill-opacity:1;" d="M 8.609375 6.578125 L 8.609375 9.816406 L 9.417969 9.816406 L 9.417969 5.734375 L 8.609375 5.734375 Z M 8.609375 6.578125 "/>
<path style=" stroke:none;fill-rule:evenodd;fill:rgb(21.568627%,28.235294%,28.235294%);fill-opacity:1;" d="M 3.757812 9.816406 L 3.757812 7.765625 L 2.949219 7.765625 L 2.949219 9.816406 Z M 3.757812 9.816406 "/>
<path style=" stroke:none;fill-rule:evenodd;fill:rgb(98.823529%,25.882353%,34.901961%);fill-opacity:1;" d="M 9.417969 9.816406 L 10.226562 9.816406 L 10.226562 5.734375 L 9.417969 5.734375 Z M 9.417969 9.816406 "/>
<path style=" stroke:none;fill-rule:evenodd;fill:rgb(98.823529%,70.196078%,16.078431%);fill-opacity:1;" d="M 7.261719 9.816406 L 8.070312 9.816406 L 8.070312 4.714844 L 7.261719 4.714844 Z M 7.261719 9.816406 "/>
<path style=" stroke:none;fill-rule:evenodd;fill:rgb(33.333333%,83.921569%,66.666667%);fill-opacity:1;" d="M 4.296875 7.597656 L 4.296875 9.816406 L 5.105469 9.816406 L 5.105469 6.75 L 4.296875 6.75 Z M 4.296875 7.597656 "/>
<path style=" stroke:none;fill-rule:evenodd;fill:rgb(14.509804%,73.72549%,64.313725%);fill-opacity:1;" d="M 5.105469 9.816406 L 5.914062 9.816406 L 5.914062 6.75 L 5.105469 6.75 Z M 5.105469 9.816406 "/>
<path style=" stroke:none;fill-rule:evenodd;fill:rgb(21.568627%,28.235294%,28.235294%);fill-opacity:1;" d="M 1.546875 10.324219 L 11.371094 10.324219 L 11.371094 9.816406 L 1.546875 9.816406 Z M 1.546875 10.324219 "/>
</g>
</svg>
