<?xml version="1.0" encoding="UTF-8"?>
<svg xmlns="http://www.w3.org/2000/svg" xmlns:xlink="http://www.w3.org/1999/xlink" width="13pt" height="12pt" viewBox="0 0 13 12" version="1.1">
<g id="surface1">
<path style=" stroke:none;fill-rule:evenodd;fill:rgb(17.647059%,18.431373%,27.843137%);fill-opacity:1;" d="M 3.941406 2.535156 L 4.253906 2.535156 L 4.253906 2.222656 L 3.941406 2.222656 Z M 3.941406 2.535156 "/>
<path style=" stroke:none;fill-rule:evenodd;fill:rgb(98.823529%,72.54902%,35.294118%);fill-opacity:1;" d="M 2.636719 2.589844 L 2.652344 2.066406 L 2.101562 2.066406 Z M 2.636719 2.589844 "/>
<path style=" stroke:none;fill-rule:evenodd;fill:rgb(98.823529%,72.54902%,35.294118%);fill-opacity:1;" d="M 5.523438 2.066406 L 4.96875 2.066406 L 5.527344 2.617188 L 5.542969 2.605469 Z M 5.523438 2.066406 "/>
<path style=" stroke:none;fill-rule:evenodd;fill:rgb(98.823529%,72.54902%,35.294118%);fill-opacity:1;" d="M 6.476562 2.066406 L 5.925781 2.066406 L 6.484375 2.617188 L 6.496094 2.605469 Z M 6.476562 2.066406 "/>
<path style=" stroke:none;fill-rule:evenodd;fill:rgb(98.823529%,72.54902%,35.294118%);fill-opacity:1;" d="M 7.433594 2.066406 L 6.882812 2.066406 L 7.4375 2.617188 L 7.453125 2.605469 Z M 7.433594 2.066406 "/>
<path style=" stroke:none;fill-rule:evenodd;fill:rgb(98.823529%,72.54902%,35.294118%);fill-opacity:1;" d="M 8.390625 2.066406 L 7.839844 2.066406 L 8.394531 2.617188 L 8.410156 2.605469 Z M 8.390625 2.066406 "/>
<path style=" stroke:none;fill-rule:evenodd;fill:rgb(52.941176%,41.960784%,30.980392%);fill-opacity:1;" d="M 2.636719 2.589844 L 2.671875 2.621094 L 2.671875 2.085938 L 2.984375 2.085938 L 2.984375 2.066406 L 2.652344 2.066406 Z M 2.636719 2.589844 "/>
<path style=" stroke:none;fill-rule:evenodd;fill:rgb(98.823529%,72.54902%,35.294118%);fill-opacity:1;" d="M 4.75 2.988281 L 5.46875 2.988281 L 4.75 2.3125 Z M 4.75 2.988281 "/>
<path style=" stroke:none;fill-rule:evenodd;fill:rgb(98.823529%,72.54902%,35.294118%);fill-opacity:1;" d="M 9.675781 2.988281 L 10.320312 2.988281 L 10.320312 2.96875 L 10.300781 2.953125 L 10.285156 2.933594 L 10.265625 2.917969 L 10.230469 2.882812 L 10.210938 2.867188 L 10.191406 2.847656 L 10.171875 2.832031 L 10.15625 2.8125 L 10.136719 2.796875 L 10.101562 2.761719 L 10.082031 2.746094 L 10.027344 2.691406 L 10.007812 2.675781 L 9.953125 2.621094 L 9.933594 2.605469 L 9.898438 2.570312 L 9.878906 2.554688 L 9.824219 2.5 L 9.804688 2.484375 L 9.769531 2.449219 L 9.75 2.433594 L 9.734375 2.414062 L 9.714844 2.398438 L 9.695312 2.378906 L 9.675781 2.363281 L 9.660156 2.34375 L 9.621094 2.3125 L 9.605469 2.292969 L 9.585938 2.277344 L 9.566406 2.257812 L 9.546875 2.242188 L 9.53125 2.222656 L 9.492188 2.191406 L 9.476562 2.171875 L 9.457031 2.15625 L 9.4375 2.136719 L 9.417969 2.121094 L 9.402344 2.101562 L 9.382812 2.085938 L 9.363281 2.066406 L 8.792969 2.066406 L 9.625 2.871094 L 9.511719 2.988281 Z M 9.675781 2.988281 "/>
<path style=" stroke:none;fill-rule:evenodd;fill:rgb(98.823529%,72.54902%,35.294118%);fill-opacity:1;" d="M 1.863281 2.988281 L 2.597656 2.988281 L 1.863281 2.292969 Z M 1.863281 2.988281 "/>
<path style=" stroke:none;fill-rule:evenodd;fill:rgb(98.823529%,72.54902%,35.294118%);fill-opacity:1;" d="M 2.984375 2.988281 L 3.445312 2.988281 L 3.445312 2.066406 L 2.984375 2.066406 Z M 2.984375 2.988281 "/>
<path style=" stroke:none;fill-rule:evenodd;fill:rgb(98.823529%,72.54902%,35.294118%);fill-opacity:1;" d="M 5.851562 2.988281 L 6.421875 2.988281 L 5.851562 2.449219 Z M 5.851562 2.988281 "/>
<path style=" stroke:none;fill-rule:evenodd;fill:rgb(98.823529%,72.54902%,35.294118%);fill-opacity:1;" d="M 6.808594 2.988281 L 7.378906 2.988281 L 6.808594 2.449219 Z M 6.808594 2.988281 "/>
<path style=" stroke:none;fill-rule:evenodd;fill:rgb(98.823529%,72.54902%,35.294118%);fill-opacity:1;" d="M 7.765625 2.988281 L 8.335938 2.988281 L 7.765625 2.449219 Z M 7.765625 2.988281 "/>
<path style=" stroke:none;fill-rule:evenodd;fill:rgb(98.823529%,72.54902%,35.294118%);fill-opacity:1;" d="M 8.722656 2.988281 L 9.292969 2.988281 L 8.722656 2.449219 Z M 8.722656 2.988281 "/>
<path style=" stroke:none;fill-rule:evenodd;fill:rgb(17.647059%,18.431373%,27.843137%);fill-opacity:1;" d="M 1.9375 1.980469 L 1.882812 2.035156 L 1.84375 2.066406 L 1.828125 2.085938 L 1.808594 2.101562 L 1.753906 2.15625 L 1.753906 2.207031 L 1.773438 2.222656 L 1.789062 2.242188 L 1.808594 2.257812 L 1.84375 2.292969 L 1.863281 2.292969 L 2.597656 2.988281 L 2.597656 3.003906 L 2.617188 3.023438 L 2.636719 3.039062 L 2.671875 3.074219 L 2.691406 3.089844 L 2.726562 3.125 L 2.78125 3.144531 L 2.855469 3.144531 L 2.910156 3.125 L 2.929688 3.109375 L 2.964844 3.074219 L 2.984375 3.039062 L 2.984375 2.085938 L 2.671875 2.085938 L 2.671875 2.621094 L 2.636719 2.589844 L 2.101562 2.066406 L 2.085938 2.050781 L 2.066406 2.035156 L 2.046875 2.015625 L 2.027344 2 L 2.011719 1.980469 L 1.992188 1.964844 L 1.957031 1.964844 Z M 1.9375 1.980469 "/>
<path style=" stroke:none;fill-rule:evenodd;fill:rgb(17.647059%,18.431373%,27.843137%);fill-opacity:1;" d="M 5.578125 1.945312 L 5.558594 1.964844 L 5.539062 1.980469 L 5.523438 2.015625 L 5.523438 2.066406 L 5.542969 2.605469 L 5.527344 2.617188 L 4.96875 2.066406 L 4.953125 2.050781 L 4.933594 2.035156 L 4.878906 1.980469 L 4.859375 1.964844 L 4.824219 1.964844 L 4.804688 1.980469 L 4.75 2.035156 L 4.625 2.183594 L 4.75 2.3125 L 5.46875 2.988281 L 5.46875 3.003906 L 5.484375 3.023438 L 5.523438 3.054688 L 5.539062 3.074219 L 5.558594 3.089844 L 5.578125 3.109375 L 5.597656 3.125 L 5.652344 3.144531 L 5.722656 3.144531 L 5.78125 3.125 L 5.816406 3.089844 L 5.835938 3.074219 L 5.851562 3.054688 L 5.851562 2.449219 L 6.421875 2.988281 L 6.421875 3.003906 L 6.441406 3.023438 L 6.460938 3.039062 L 6.496094 3.074219 L 6.515625 3.089844 L 6.550781 3.125 L 6.605469 3.144531 L 6.679688 3.144531 L 6.734375 3.125 L 6.753906 3.109375 L 6.808594 3.054688 L 6.808594 2.449219 L 7.378906 2.988281 L 7.378906 3.003906 L 7.414062 3.039062 L 7.433594 3.054688 L 7.453125 3.074219 L 7.472656 3.089844 L 7.488281 3.109375 L 7.507812 3.125 L 7.5625 3.144531 L 7.636719 3.144531 L 7.691406 3.125 L 7.710938 3.109375 L 7.726562 3.089844 L 7.746094 3.074219 L 7.765625 3.054688 L 7.765625 2.449219 L 8.335938 2.988281 L 8.335938 3.003906 L 8.371094 3.039062 L 8.390625 3.054688 L 8.445312 3.109375 L 8.480469 3.125 L 8.519531 3.144531 L 8.59375 3.144531 L 8.648438 3.125 L 8.667969 3.109375 L 8.683594 3.089844 L 8.703125 3.074219 L 8.722656 3.054688 L 8.722656 2.449219 L 9.292969 2.988281 L 9.292969 3.003906 L 9.308594 3.023438 L 9.328125 3.039062 L 9.347656 4.476562 L 9.675781 4.476562 L 9.675781 2.988281 L 9.511719 2.988281 L 9.625 2.871094 L 8.792969 2.066406 L 8.777344 2.050781 L 8.757812 2.035156 L 8.703125 1.980469 L 8.683594 1.964844 L 8.667969 1.945312 L 8.648438 1.929688 L 8.480469 1.929688 L 8.445312 1.945312 L 8.410156 1.980469 L 8.390625 2.035156 L 8.390625 2.066406 L 8.410156 2.605469 L 8.394531 2.617188 L 7.839844 2.066406 L 7.800781 2.035156 L 7.785156 2.015625 L 7.765625 2 L 7.746094 1.980469 L 7.726562 1.964844 L 7.710938 1.945312 L 7.691406 1.929688 L 7.527344 1.929688 L 7.488281 1.945312 L 7.472656 1.964844 L 7.453125 1.980469 L 7.433594 2.035156 L 7.433594 2.066406 L 7.453125 2.605469 L 7.4375 2.617188 L 6.882812 2.066406 L 6.863281 2.050781 L 6.828125 2.015625 L 6.808594 2 L 6.753906 1.945312 L 6.734375 1.929688 L 6.570312 1.929688 L 6.535156 1.945312 L 6.515625 1.964844 L 6.496094 1.980469 L 6.476562 2.015625 L 6.476562 2.066406 L 6.496094 2.605469 L 6.484375 2.617188 L 5.925781 2.066406 L 5.910156 2.050781 L 5.890625 2.035156 L 5.871094 2.015625 L 5.851562 2 L 5.835938 1.980469 L 5.816406 1.964844 L 5.78125 1.929688 L 5.613281 1.929688 Z M 5.578125 1.945312 "/>
<path style=" stroke:none;fill-rule:evenodd;fill:rgb(98.823529%,72.54902%,35.294118%);fill-opacity:1;" d="M 3.941406 2.222656 L 4.253906 2.222656 L 4.253906 2.535156 L 3.941406 2.535156 Z M 3.445312 2.066406 L 3.445312 3.714844 L 4.75 3.714844 L 4.75 2.3125 L 4.625 2.183594 L 4.75 2.035156 L 4.75 1.617188 L 3.445312 1.617188 Z M 3.445312 2.066406 "/>
<path style=" stroke:none;fill-rule:evenodd;fill:rgb(88.235294%,87.058824%,86.27451%);fill-opacity:1;" d="M 3.152344 4.632812 L 6.164062 4.632812 L 6.164062 4.339844 L 3.152344 4.339844 Z M 3.152344 4.632812 "/>
<path style=" stroke:none;fill-rule:evenodd;fill:rgb(38.431373%,78.039216%,70.588235%);fill-opacity:1;" d="M 10.652344 4.476562 L 7.414062 4.476562 C 7.464844 4.511719 9.003906 5.066406 9.035156 5.066406 C 9.089844 5.066406 10.613281 4.507812 10.652344 4.476562 Z M 10.652344 4.476562 "/>
<path style=" stroke:none;fill-rule:evenodd;fill:rgb(88.235294%,87.058824%,86.27451%);fill-opacity:1;" d="M 6.164062 5.222656 L 6.164062 4.945312 L 3.152344 4.945312 L 3.152344 5.222656 Z M 6.164062 5.222656 "/>
<path style=" stroke:none;fill-rule:evenodd;fill:rgb(88.235294%,87.058824%,86.27451%);fill-opacity:1;" d="M 6.164062 5.222656 L 3.152344 5.222656 L 3.152344 4.945312 L 6.164062 4.945312 L 3.132812 4.929688 L 3.132812 5.242188 Z M 6.164062 5.222656 "/>
<path style=" stroke:none;fill-rule:evenodd;fill:rgb(38.431373%,78.039216%,70.588235%);fill-opacity:1;" d="M 6.976562 5.8125 L 8.574219 5.226562 L 6.976562 4.652344 Z M 6.976562 5.8125 "/>
<path style=" stroke:none;fill-rule:evenodd;fill:rgb(38.431373%,78.039216%,70.588235%);fill-opacity:1;" d="M 11.109375 5.8125 L 11.109375 4.652344 L 9.488281 5.238281 Z M 11.109375 5.8125 "/>
<path style=" stroke:none;fill-rule:evenodd;fill:rgb(88.235294%,87.058824%,86.27451%);fill-opacity:1;" d="M 3.152344 5.832031 L 6.164062 5.832031 L 6.164062 5.535156 L 3.152344 5.535156 Z M 3.152344 5.832031 "/>
<path style=" stroke:none;fill-rule:evenodd;fill:rgb(38.431373%,78.039216%,70.588235%);fill-opacity:1;" d="M 7.433594 5.988281 L 10.632812 5.988281 L 9.050781 5.390625 Z M 7.433594 5.988281 "/>
<path style=" stroke:none;fill-rule:evenodd;fill:rgb(17.647059%,18.431373%,27.843137%);fill-opacity:1;" d="M 10.964844 4.355469 L 10.910156 4.375 L 10.871094 4.390625 L 10.816406 4.410156 L 10.761719 4.425781 L 10.726562 4.445312 L 10.671875 4.460938 L 10.652344 4.476562 C 10.613281 4.507812 9.089844 5.066406 9.035156 5.066406 C 9.003906 5.066406 7.464844 4.511719 7.414062 4.476562 L 7.015625 4.359375 L 6.921875 4.632812 L 6.976562 4.652344 L 8.574219 5.226562 L 6.976562 5.8125 L 6.910156 5.835938 L 7.015625 6.132812 L 7.433594 5.988281 L 9.050781 5.390625 L 10.632812 5.988281 L 10.652344 6.003906 L 10.707031 6.023438 L 10.761719 6.039062 L 10.796875 6.054688 L 10.855469 6.074219 L 10.890625 6.089844 L 10.945312 6.109375 L 11 6.125 L 11.039062 6.144531 L 11.054688 6.144531 L 11.074219 6.125 L 11.09375 6.074219 L 11.109375 6.039062 L 11.128906 5.988281 L 11.148438 5.933594 L 11.167969 5.898438 L 11.167969 5.832031 L 11.128906 5.8125 L 11.109375 5.8125 L 9.488281 5.238281 L 11.109375 4.652344 L 11.148438 4.652344 L 11.167969 4.632812 L 11.167969 4.566406 L 11.148438 4.53125 L 11.128906 4.476562 L 11.109375 4.445312 L 11.09375 4.390625 L 11.074219 4.339844 L 11 4.339844 Z M 10.964844 4.355469 "/>
<path style=" stroke:none;fill-rule:evenodd;fill:rgb(87.843137%,32.54902%,27.45098%);fill-opacity:1;" d="M 1.863281 6.316406 L 1.902344 6.332031 L 1.917969 6.351562 L 1.9375 6.367188 L 1.992188 6.421875 L 2.027344 6.4375 L 2.046875 6.453125 L 2.066406 6.472656 L 2.085938 6.488281 L 2.101562 6.507812 L 2.121094 6.523438 L 2.15625 6.542969 L 2.175781 6.558594 L 2.195312 6.578125 L 2.214844 6.59375 L 2.25 6.628906 L 2.285156 6.644531 L 2.304688 6.664062 L 2.324219 6.679688 L 2.339844 6.679688 C 2.414062 6.726562 2.984375 7.175781 2.984375 7.21875 L 2.984375 7.945312 L 5.6875 7.945312 L 5.6875 6.28125 L 1.863281 6.28125 Z M 1.863281 6.316406 "/>
<path style=" stroke:none;fill-rule:evenodd;fill:rgb(17.647059%,18.431373%,27.843137%);fill-opacity:1;" d="M 4.730469 9.75 L 7.765625 9.75 L 7.765625 8.535156 L 4.730469 8.535156 Z M 4.730469 9.75 "/>
<path style=" stroke:none;fill-rule:evenodd;fill:rgb(88.235294%,87.058824%,86.27451%);fill-opacity:1;" d="M 9.621094 10.355469 L 9.789062 10.355469 L 9.898438 10.339844 L 9.972656 10.320312 L 10.027344 10.304688 L 10.0625 10.289062 L 10.101562 10.269531 L 10.136719 10.253906 L 10.171875 10.234375 L 10.191406 10.21875 L 10.230469 10.199219 L 10.265625 10.164062 L 10.300781 10.148438 L 10.320312 10.132812 L 10.339844 10.113281 L 10.359375 10.097656 L 10.375 10.078125 L 10.394531 10.0625 L 10.414062 10.042969 L 10.429688 10.007812 L 10.46875 9.976562 L 10.484375 9.957031 L 10.523438 9.886719 L 10.542969 9.855469 L 10.558594 9.820312 L 10.597656 9.75 L 10.613281 9.679688 L 10.632812 9.609375 L 10.632812 6.734375 L 8.722656 6.734375 C 8.722656 7.476562 8.722656 8.222656 8.722656 8.96875 C 8.722656 9.414062 8.675781 9.648438 8.875 9.933594 C 8.957031 10.046875 9.046875 10.140625 9.167969 10.210938 C 9.304688 10.289062 9.585938 10.335938 9.621094 10.355469 Z M 9.621094 10.355469 "/>
<path style=" stroke:none;fill-rule:evenodd;fill:rgb(41.568627%,80%,93.72549%);fill-opacity:1;" d="M 4.730469 8.535156 L 7.765625 8.535156 L 7.765625 9.75 L 4.730469 9.75 Z M 3.152344 5.535156 L 6.164062 5.535156 L 6.164062 5.832031 L 3.152344 5.832031 Z M 6.164062 4.945312 L 6.164062 5.222656 L 3.132812 5.242188 L 3.132812 4.929688 Z M 3.152344 4.339844 L 6.164062 4.339844 L 6.164062 4.632812 L 3.152344 4.632812 Z M 2.339844 6.28125 L 5.6875 6.28125 L 5.6875 7.945312 L 2.984375 7.945312 L 2.984375 7.21875 C 2.984375 7.175781 2.414062 6.726562 2.339844 6.679688 L 2.339844 9.609375 L 2.378906 9.75 L 2.398438 9.785156 L 2.414062 9.820312 L 2.433594 9.855469 L 2.453125 9.886719 L 2.46875 9.921875 L 2.488281 9.957031 L 2.507812 9.976562 L 2.527344 9.992188 L 2.542969 10.007812 L 2.5625 10.042969 L 2.617188 10.097656 L 2.636719 10.113281 L 2.652344 10.132812 L 2.671875 10.148438 L 2.710938 10.164062 L 2.726562 10.183594 L 2.746094 10.199219 L 2.78125 10.21875 L 2.800781 10.234375 L 2.839844 10.253906 L 2.875 10.269531 L 2.910156 10.289062 L 2.964844 10.304688 L 3.003906 10.320312 L 3.078125 10.339844 L 3.1875 10.355469 L 9.621094 10.355469 C 9.585938 10.335938 9.304688 10.289062 9.167969 10.210938 C 9.046875 10.140625 8.957031 10.046875 8.875 9.933594 C 8.675781 9.648438 8.722656 9.414062 8.722656 8.96875 C 8.722656 8.222656 8.722656 7.476562 8.722656 6.734375 L 8.722656 5.988281 L 7.433594 5.988281 L 7.015625 6.132812 L 6.910156 5.835938 L 6.976562 5.8125 L 6.976562 4.652344 L 6.921875 4.632812 L 7.015625 4.359375 L 7.414062 4.476562 L 8.722656 4.476562 L 8.722656 3.714844 L 2.339844 3.714844 Z M 2.339844 6.28125 "/>
</g>
</svg>
