<svg xmlns="http://www.w3.org/2000/svg" width="13pt" height="16" viewBox="0 0 13 12"><g fill-rule="evenodd"><path d="M9.344 2.16c.242 0 .59.223.707.356.168.187.289.425.289.77 0 .573-.457.944-.961 1.054-.11.07-.426.012-.547-.02a1.004 1.004 0 0 1-.426-.218c-.265-.223-.383-.403-.433-.82-.043-.348.222-.684.394-.848a1.03 1.03 0 0 1 .399-.23c.097-.032.457-.118.578-.044zm-.535-.453l-.051.016-.074.015-.051.02-.11.031-.035.016-.035.02-.07.03-.035.02-.036.016-.019.015-.035.02-.035.015-.02.016-.015.016-.036.02-.02.015-.015.015-.039.02-.015.016-.02.015-.016.02-.02.015-.015.016-.02.016-.015.02-.039.03-.016.02-.02.016-.015.035c-.015.054-.183.281-.238.41a1.492 1.492 0 0 0-.117.527l-.008.086.043.317c.082.34.332.699.586.875.34.234.586.335 1.176.335.164 0 .488-.113.605-.167.23-.11.293-.211.461-.32h.02l.015-.016.02-.016.02-.02.015-.03.035-.036.02-.035.015-.016.02-.015.015-.036.02-.03.02-.02.015-.032.02-.035.015-.031.02-.035.015-.035.02-.032.015-.05.04-.102.015-.066.02-.051.015-.117V3.03l-.015-.101-.02-.067-.015-.066-.04-.102-.015-.05-.02-.032-.015-.035-.02-.031-.015-.035-.02-.035-.016-.032-.02-.02-.019-.03-.015-.016-.02-.035-.035-.035-.016-.032-.02-.015-.015-.02-.02-.015-.019-.036-.015-.015-.02-.016-.016-.02-.02-.015-.015-.016-.02-.015-.019-.02-.035-.015-.05-.051-.036-.016-.02-.02-.019-.015-.035-.016-.016-.015-.035-.02-.02-.015-.035-.016-.035-.02-.07-.03-.035-.02-.04-.016-.05-.016-.055-.015-.054-.02-.141-.031-.106-.02h-.464zm0 0" fill="#ef9614"/><path d="M9.023 2.645v.07H8.88c-.07 0-.176.12-.176.2v.253c0 .117.117.215.25.215h.39v.168h-.445c-.078 0-.18.035-.18.101v.035c0 .079.044.118.126.118h.18v.082c0 .062.05.136.105.136h.074c.055 0 .086-.062.086-.117v-.101h.125c.098 0 .195-.094.195-.184v-.305c0-.105-.109-.183-.23-.183h-.39v-.168h.445c.105 0 .175-.035.175-.133 0-.078-.039-.117-.125-.117H9.29v-.121c0-.078-.039-.117-.125-.117-.105 0-.14.07-.14.168zm0 0" fill="#dc752b"/><path d="M9.023 2.645c0-.098.036-.168.141-.168.086 0 .125.039.125.117v.12h.195c.086 0 .125.04.125.118 0 .098-.07.133-.175.133h-.446v.168h.39c.122 0 .231.078.231.183v.305c0 .09-.097.184-.195.184H9.29v.101c0 .055-.031.117-.086.117H9.13c-.055 0-.106-.074-.106-.136v-.082h-.18c-.081 0-.124-.04-.124-.118v-.035c0-.066.101-.101.18-.101h.445v-.168h-.39c-.134 0-.25-.098-.25-.215v-.254c0-.078.105-.2.175-.2h.144zM9.38 4.34c.504-.11.96-.48.96-1.055 0-.344-.12-.582-.288-.77-.117-.132-.465-.355-.707-.355-.453 0-.996.54-.996.973v.25c0 .437.543.957 1.03.957zm0 0" fill="#ffcf0d"/><path d="M9.379 4.34c-.488 0-1.031-.52-1.031-.957v-.25c0-.434.543-.973.996-.973-.121-.074-.48.012-.578.043a1.03 1.03 0 0 0-.399.23c-.172.165-.437.5-.394.848.05.418.168.598.433.82.117.102.254.176.426.22.121.03.438.09.547.019zm0 0" fill="#ffaf10"/><path d="M5.996 4.46v.286c0 .05.059.098.125.098h.02c.066 0 .125-.047.125-.098v-.285c0-.055-.059-.102-.125-.102h-.02c-.066 0-.125.047-.125.102zm0 0M5.375 4.695v.051c0 .07.215.266.3.266h.055c.06 0 .09-.059.09-.117v-.016c0-.063-.238-.285-.304-.285H5.48c-.043 0-.105.058-.105.101zm0 0M6.441 4.879v.016c0 .058.032.117.09.117h.055c.086 0 .3-.196.3-.266v-.05c0-.044-.062-.102-.105-.102h-.035c-.066 0-.305.222-.305.285zm0 0M5.105 5.297v.035c0 .05.06.102.125.102h.286c.07 0 .125-.051.125-.102v-.035c0-.05-.055-.098-.125-.098H5.23c-.066 0-.125.047-.125.098zm0 0M6.621 5.297v.035c0 .05.055.102.125.102h.285c.067 0 .121-.051.121-.102v-.035c0-.05-.054-.098-.12-.098h-.286c-.07 0-.125.047-.125.098zm0 0" fill="#fafefe"/><path d="M7.031 5.2c.067 0 .121.046.121.097v.035c0 .05-.054.102-.12.102h-.286c-.07 0-.125-.051-.125-.102v-.035c0-.05.055-.098.125-.098zm-1.515 0c.07 0 .125.046.125.097v.035c0 .05-.055.102-.125.102H5.23c-.066 0-.125-.051-.125-.102v-.035c0-.05.06-.098.125-.098zm.925-.321c0-.063.239-.285.305-.285h.035c.043 0 .106.058.106.101v.051c0 .07-.215.266-.301.266H6.53c-.058 0-.09-.059-.09-.117zm-.445-.418c0-.055.059-.102.125-.102h.02c.066 0 .125.047.125.102v.285c0 .05-.059.098-.125.098h-.02c-.066 0-.125-.047-.125-.098zm-.516.133h.036c.066 0 .304.222.304.285v.016c0 .058-.03.117-.09.117h-.054c-.086 0-.301-.196-.301-.266v-.05c0-.044.063-.102.105-.102zM4.094 5.902h1.742c0-.351-.098-.82.27-.82h.085c.375 0 .286.465.286.82h1.996c.285 0 .78.086.828-.156.035-.172.008-.723.008-.934-.59 0-.836-.101-1.176-.335a1.622 1.622 0 0 1-.586-.875H4.094c-.086.07-.125.086-.125.238v1.828c0 .148.039.168.125.234zm0 0" fill="#91e0e8"/><path d="M3.613 5.484c0 .243-.043.317.125.418h.356c-.086-.066-.125-.086-.125-.234V3.84c0-.152.039-.168.125-.238-.211 0-.426-.036-.477.125-.015.058-.004.484-.004.582v1.175zm0 0" fill="#5dc1d8"/><path d="M9.629 7.715c-.043.027-.09.035-.16.035h-.02c-.289 0-.605-.254-.605-.52v-.117c0-.238.285-.523.535-.523h.144a.18.18 0 0 1 .122.035c.214.016.43.313.43.535a.576.576 0 0 1-.446.555zm-.32-2.902c0 .21.027.761-.008.933-.047.242-.543.156-.828.156H6.477v.387c.054-.027.093-.066.16-.066h.195c.11 0 .145.078.2.117.058-.043.09-.117.195-.117h.195c.105 0 .14.078.195.117.059-.043.094-.117.196-.117h.195c.347 0 .23.726.23 1.058v1.274c.114 0 .18.015.18.117v.621c0 .062-.027.082-.055.117h-.16v.54h.035l.04-.016.034-.02.07-.031.036-.02.105-.047.036-.02.039-.015.015-.015.035-.02.07-.031.02-.02.035-.015.02-.016.035-.016.016-.02.035-.015.039-.015.016-.02.02-.015.034-.016.016-.016.035-.02.04-.03.034-.02.016-.016.02-.015.015-.02.04-.015.015-.016.02-.016.015-.02.035-.015.02-.015.015-.02.04-.031.015-.02.02-.015.035-.016.05-.05.02-.016.035-.036.02-.015.015-.02.02-.015.015-.016.02-.016.016-.02.039-.03.015-.036.02-.015.015-.02.02-.015.016-.016.02-.016.015-.02.02-.03.034-.036.02-.015.016-.035.02-.016.034-.035.016-.031.02-.02.019-.016.016-.03.02-.02.015-.032.035-.035.02-.035.015-.031.02-.016.02-.035.015-.016.02-.035.015-.015.02-.035.015-.032.02-.035.015-.015.04-.07.015-.032.02-.035.015-.031.02-.036.015-.03.04-.071.015-.031.02-.051.015-.035.02-.032.015-.05.02-.051.015-.035.02-.051.015-.05.02-.048.02-.05.015-.051.02-.067.015-.05.02-.086.015-.067.02-.066.02-.102.015-.082.02-.137.015-.152v-.738l-.015-.149-.02-.136-.015-.082-.02-.102-.02-.066-.015-.067-.02-.086-.015-.05-.02-.067-.015-.05-.04-.102-.015-.047-.02-.05-.015-.036-.02-.05-.015-.052-.02-.03-.016-.036-.02-.05-.015-.032-.039-.07-.015-.032-.02-.035c-.168.11-.23.211-.46.32-.118.055-.442.168-.606.168zm0 0" fill="#a53535"/><path d="M3.504 6.559c.297-.067.445-.305.445-.657h-.21c-.169-.101-.126-.175-.126-.418l-.09-.02c-.238.009-.445.29-.445.54v.05c0 .239.223.458.426.505zm0 0" fill="#ffcf0d"/><path d="M3.504 6.559c-.203-.047-.426-.266-.426-.504v-.051c0-.25.207-.531.445-.54-.039-.023-.058-.03-.125-.03h-.144c-.246 0-.531.28-.531.52v.116c0 .266.312.52.605.52h.016c.07 0 .12-.008.16-.031zm0 0" fill="#ffaf10"/><path d="M9.629 7.715a.576.576 0 0 0 .445-.555c0-.223-.215-.52-.43-.535-.234.004-.44.285-.44.535v.05c0 .24.222.462.425.505zm0 0" fill="#ffcf0d"/><path d="M5.906 2.074l-.14.02-.09.015-.106.016-.07.016-.074.02-.086.015-.055.015-.07.02-.11.031-.05.02-.11.031-.035.016-.05.02-.055.015-.035.015-.036.02-.054.016-.07.03-.036.02-.035.016-.039.016-.035.02-.07.03-.036.02-.035.015-.02.016-.034.016-.036.02-.035.015-.02.016-.034.02-.016.015-.035.015-.02.02-.07.031-.02.016-.015.02-.035.015-.02.015-.035.02-.02.016-.015.015-.035.02-.02.015-.016.016-.02.016-.034.02-.02.015L3.664 3l-.035.016-.05.05-.04.032-.016.02-.035.015-.02.015-.015.02-.02.016-.035.035-.02.015-.015.016-.02.016-.015.02-.02.015-.035.035-.02.016-.015.015-.02.035-.015.016-.02.016-.015.02-.02.015-.035.035-.02.031-.05.05-.02.036-.015.016-.02.015-.015.02-.02.031-.02.016-.015.02-.02.03-.015.02-.02.031-.015.02-.02.015-.015.032-.02.035-.02.015-.015.036-.02.015-.015.035-.02.016-.015.035-.02.031-.016.036-.02.015-.019.035-.015.032-.02.035-.015.035-.02.031-.016.035-.02.032-.015.035-.02.035-.019.031-.015.051-.02.035-.016.031-.02.051-.015.05-.02.036-.015.05-.02.048-.019.05-.016.051-.02.051-.015.066-.02.051-.015.086-.02.067-.015.066-.02.102-.02.082-.015.136-.02.149v.738l.02.152.016.137.02.082.019.102.015.066.02.067.016.085.02.051.015.067.02.05.015.051.02.047.019.05.016.052.02.035.015.05.02.051.015.032.02.035.015.05c.012-.003.336-.242.453-.296.176-.082.38-.14.633-.14h.074c.723 0 1.371.64 1.371 1.343v.031c0 .27-.074.434-.164.621-.07.14-.34.395-.355.438l.035.015.04.02.07.031.035.02.035.015.054.016.036.02.035.015.054.016.051.015.035.02.11.031.05.02.11.03.07.02.055.016.086.016.074.015.07.02.106.015.09.016.14.02.16.015h.02V9.41H5.96c-.059 0-.09-.058-.09-.117v-.621c0-.059.027-.078.055-.117h.14c-.152-.22-1.101-.93-1.101-1.125v-.032c0-.16.203-.355.375-.355h.035c.066 0 .113.031.14.07l.32.285V5.902H3.95c0 .352-.148.59-.445.657a.307.307 0 0 1-.16.03h-.016c-.293 0-.605-.253-.605-.519v-.117c0-.238.285-.52.53-.52h.145c.067 0 .086.008.125.032l.09.02V4.308c0-.098-.011-.524.004-.582.051-.16.266-.125.477-.125h3.453l-.043-.317.008-.086c0-.172.058-.394.117-.527.055-.129.223-.356.238-.41l-.054-.02-.055-.015-.051-.016-.07-.02-.055-.015-.09-.016-.07-.02-.07-.015-.11-.016-.09-.015-.14-.02-.16-.015h-.786zm0 0" fill="#a53535"/><path d="M9.629 7.715c-.203-.043-.426-.266-.426-.504v-.05c0-.25.207-.532.442-.536a.18.18 0 0 0-.122-.035H9.38c-.25 0-.535.285-.535.523v.117c0 .266.316.52.605.52h.02c.07 0 .117-.008.16-.035zm0 0" fill="#ffaf10"/><path d="M3.754 7.883c.367.008.766.484.766.875 0 .418-.38.898-.766.906l-.195.031h-.036c-.52 0-.96-.425-.96-.922 0-.277.136-.507.289-.648.117-.113.449-.313.707-.281zm-1.3-.031l-.017.015-.019.035-.016.016-.02.016-.015.02-.02.03L2.333 8l-.02.035-.019.016-.016.035-.02.031-.015.035-.02.036-.015.03-.02.036-.015.05-.04.102-.015.067-.02.101v.403l.02.097.016.07.02.051.019.047.015.051.02.035.016.035.02.032.015.035.02.03.015.036.02.016.019.035.016.015.02.036.015.015.02.016.015.035.02.016.035.035.02.015.05.051.02.016.015.02.02.015.035.016.02.015.015.02.035.015.02.016.035.02.015.015.04.016.015.02.07.03.055.016.035.02.055.015.035.016.07.02.055.015.106.016.18.02h.105l.18-.02.105-.016.07-.015.055-.02.055-.016.035-.015.05-.02.036-.015.039-.016.035-.016.016-.02.07-.03.02-.02.035-.016.02-.015.015-.02.035-.015c.015-.043.285-.297.355-.438.09-.187.164-.351.164-.62v-.032c0-.703-.648-1.344-1.37-1.344h-.075c-.254 0-.457.055-.633.14-.117.055-.441.294-.453.298zm0 0" fill="#ef9614"/><path d="M6.066 8.555h.36C6.25 8.309 5.32 7.656 5.32 7.398v-.02c0-.093.133-.226.196-.265a.166.166 0 0 0-.141-.07H5.34c-.172 0-.375.195-.375.355v.032c0 .195.95.906 1.101 1.125zm0 0" fill="#ffc987"/><path d="M5.836 5.902v1.496l-.32-.285c-.063.04-.196.172-.196.266v.02c0 .257.93.91 1.106 1.156h1.812V7.28c0-.332.117-1.058-.23-1.058h-.195c-.102 0-.137.074-.196.117-.054-.04-.09-.117-.195-.117h-.195c-.106 0-.137.074-.196.117-.054-.04-.09-.117-.199-.117h-.195c-.067 0-.106.039-.16.066v-.387c0-.355.09-.82-.286-.82h-.086c-.367 0-.27.469-.27.82zm0 0" fill="#fee1b7"/><path d="M7.758 8.957v.07c0 .047.094.133.144.133h.09c.051 0 .14-.086.14-.133v-.07c0-.082-.07-.148-.16-.148h-.054c-.086 0-.16.066-.16.148zm0 0" fill="#fafefe"/><path d="M7.758 8.957c0-.082.074-.148.16-.148h.055c.09 0 .16.066.16.148v.07c0 .047-.09.133-.14.133h-.09c-.051 0-.145-.086-.145-.133zm-1.672 1.328h.18l-.16-.015v-.86h2.257c.028-.035.055-.055.055-.117v-.621c0-.102-.066-.117-.18-.117H5.926c-.028.039-.055.058-.055.117v.621c0 .059.031.117.09.117h.125zm0 0" fill="#0f9390"/><path d="M3.414 8.203v.082h-.121c-.098 0-.16.14-.16.254v.184c0 .129.14.183.281.183h.27v.121h-.446c-.043 0-.105.059-.105.098v.05c0 .055.074.102.14.102h.141v.067c0 .078.043.117.125.117h.04c.054 0 .105-.07.105-.133v-.05c.136-.005.265-.055.265-.184v-.285c0-.055-.105-.153-.16-.153H3.4V8.54h.374c.106 0 .176-.035.176-.133v-.02c0-.038-.062-.1-.105-.1h-.16c0-.09-.02-.2-.106-.2H3.54c-.082 0-.125.039-.125.117zm0 0" fill="#dc752b"/><path d="M3.414 8.203c0-.078.043-.117.125-.117h.04c.085 0 .105.11.105.2h.16c.043 0 .105.062.105.1v.02c0 .098-.07.133-.176.133h-.375v.117h.391c.055 0 .16.098.16.153v.285c0 .129-.129.18-.265.183v.051c0 .063-.051.133-.106.133H3.54c-.082 0-.125-.04-.125-.117v-.067h-.14c-.067 0-.141-.047-.141-.101v-.051c0-.04.062-.098.105-.098h.446v-.12h-.27c-.14 0-.281-.055-.281-.184v-.184c0-.113.062-.254.16-.254h.121zm.34 1.461c.387-.008.766-.488.766-.906 0-.39-.399-.867-.766-.875-.41 0-.82.43-.82.824v.2c0 .34.437.757.82.757zm0 0" fill="#ffcf0d"/><path d="M3.754 9.664c-.383 0-.82-.418-.82-.758v-.199c0-.395.41-.824.82-.824l-.195-.04c-.258-.03-.59.169-.707.282a.895.895 0 0 0-.29.648c0 .497.442.922.961.922h.036zm0 0" fill="#ffaf10"/><path d="M6.441 10.285h.41l.16-.015.141-.02.09-.016.11-.015.07-.02.07-.015.09-.016.055-.016.07-.02.05-.015.056-.015.054-.02.051-.016.055-.015.054-.02.036-.015.054-.016.035-.016.036-.02.015-.015V9.41H6.441zm0 0" fill="#39c279"/><path d="M6.266 10.285h.175V9.41h-.336v.86zm0 0" fill="#02af8e"/></g></svg>