<svg xmlns="http://www.w3.org/2000/svg" width="13pt" height="16" viewBox="0 0 13 12"><g fill-rule="evenodd"><path d="M6.441 1.68l-.074.015-.054.02-.036.015-.035.02-.035.016-.039.015-.035.02-.02.015-.035.02-.02.016-.035.015v.02c-.09.125-.152.133-.25.312a.85.85 0 0 0-.113.442c0 .515.477.945 1.035.945h.055c.05 0 .05-.008.094-.02-.04-.023-.219-.07-.301-.113a1.028 1.028 0 0 1-.242-.18c-.121-.113-.258-.343-.258-.562v-.258c0-.05.008-.031.035-.05v-.036c.004-.152.184-.36.277-.441.196-.176.317-.145.489-.246l-.04-.016h-.253zm0 0" fill="#b90b2c"/><path d="M6.078 2.367v.035c0 .25.09.297.23.43.044.04.329.324.352.324.055 0 .617-.527.617-.636v-.102c0-.106-.125-.223-.234-.223h-.11c-.12 0-.18.106-.253.153-.078-.047-.137-.153-.258-.153h-.11c-.136 0-.175.11-.234.172zm0 0" fill="#edf6ff"/><path d="M6.078 2.367c.059-.062.098-.172.234-.172h.11c.121 0 .18.106.258.153.074-.047.133-.153.254-.153h.109c.11 0 .234.118.234.223v.102c0 .109-.562.636-.617.636-.023 0-.308-.285-.351-.324-.141-.133-.23-.18-.23-.43-.028.02-.036 0-.036.051v.258c0 .219.137.45.258.562.078.075.14.125.242.18.082.043.262.09.3.113.376-.027.837-.445.837-.824V2.47c0-.114-.137-.328-.184-.41v-.02l-.016-.031-.02-.02-.019-.015-.015-.02-.04-.031-.015-.02-.02-.015-.019-.02-.035-.015-.02-.016-.035-.02-.02-.015-.035-.02-.035-.015-.039-.016-.035-.02-.035-.015-.055-.02-.074-.015h-.07c-.172.101-.293.07-.489.246-.093.082-.273.289-.277.441zm0 0" fill="#fe3745"/><path d="M8.371 3.48v.02c0 .04.063.102.11.102h1.582c.085 0 .128-.04.128-.122v-.03c0-.075-.101-.106-.183-.106H8.535c-.09 0-.164.05-.164.136zm0 0M8.371 3.86v.035c0 .05.059.101.125.101h1.602c.043 0 .093-.047.093-.086v-.066c0-.07-.101-.106-.183-.106H8.535c-.078 0-.164.059-.164.121zm0 0" fill="#edf6ff"/><path d="M7.188 4.238c.085-.129-.004-.402-.067-.468-.113-.118-.293-.083-.516-.083H5.406c0 .235-.015.481.235.481h1.546zm0 0" fill="#ffe1b6"/><path d="M8.371 4.254v.016c0 .09.074.14.164.14h.727c.074 0 .164-.058.164-.12v-.036c0-.043-.067-.102-.11-.102H8.48c-.046 0-.109.059-.109.102zm0 0" fill="#edf6ff"/><path d="M3.184 4.203c-.016.031-.036.05-.036.102v.07c0 .063.024.059.036.117.054.035.117.086.203.086.105 0 .234-.098.234-.203v-.05c0-.106-.11-.208-.219-.208h-.035c-.086 0-.129.051-.183.086zm0 0" fill="#adc0ec"/><path d="M3.95 4.219v.343c.316 0 .5.032.57-.214.05-.168.07-.489.097-.664.024-.149.059-.559.113-.649.133-.207.29-.172.622-.172 0-.191-.09-.343-.274-.343H4.66c-.637 0-.219 1.593-.71 1.699zm0 0" fill="#ffc987"/><path d="M3.95 4.563v1.886h1.218c0-.27-.02-.445.219-.496-.024-.078-.164-.121-.164-.258v-.222c0-.223.16-.22.218-.293-.109-.024-.218-.121-.218-.239V4.72c0-.18.109-.2.199-.278-.18 0-.309-.105-.309-.273v-.207c0-.18.114-.219.239-.273v-.825c-.332 0-.489-.035-.622.172-.054.09-.09.5-.113.649-.027.175-.047.496-.097.664-.07.246-.254.215-.57.215zm0 0" fill="#ffe1b6"/><path d="M8.371 4.77c-.031-.032-.055-.043-.055-.106V3.051c0-.04.028-.047.055-.082h-.348c-.03.02-.07.035-.07.082v1.613c0 .047.008.05.016.098zm0 0" fill="#1e99d6"/><path d="M7.262 4.922c0-.27.015-.473-.274-.48H5.516v.222c0 .328.382.258.726.258h1.02zm0 0" fill="#ffe1b6"/><path d="M9.316 4.152c.043 0 .11.059.11.102v.035c0 .063-.09.121-.164.121h-.727c-.09 0-.164-.05-.164-.14v-.016c0-.043.063-.102.11-.102zm-.945-.293c0-.062.086-.12.164-.12h1.473c.082 0 .183.034.183.105v.066c0 .04-.05.086-.093.086H8.496c-.066 0-.125-.05-.125-.101zm0-.379c0-.085.074-.136.164-.136h1.473c.082 0 .183.031.183.105v.031c0 .083-.043.122-.129.122H8.48c-.046 0-.109-.063-.109-.102zm0 1.29c.246 0 .48-.047.59.093.043.059.266.367.32.367.098 0 .293-.382.41-.433.098-.047.723-.059.825-.012h.02l.054-.015.035-.036V3.02l-.016-.036-.02-.015H8.372c-.027.035-.055.043-.055.082v1.613c0 .063.024.074.055.106zm0 0" fill="#52bbef"/><path d="M7.262 5.68c0-.395.027-.313-.203-.5-.04.008-.04.02-.09.02H5.516v.222c0 .32.39.258.726.258h1.02zm0 0" fill="#ffe1b6"/><path d="M5.387 5.953h.05l.024.238v-.253l1.527-.004c.172 0 .274-.094.274-.254h-1.02c-.336 0-.726.062-.726-.258v-.223h1.453c.05 0 .05-.011.09-.02.125-.027.203-.109.203-.257h-1.02c-.344 0-.726.07-.726-.258v-.223h1.472c.086-.054.188-.07.2-.203v-.07H5.64c-.25 0-.235-.246-.235-.48h-.054c-.125.054-.239.093-.239.273v.207c0 .168.13.273.309.273-.09.079-.2.098-.2.278v.222c0 .118.11.215.22.239-.06.074-.22.07-.22.293v.222c0 .137.141.18.165.258zm0 0" fill="#ffc987"/><path d="M2.184 4.355l-.016.036-.04.07-.015.05-.02.036-.019.05-.015.051-.02.036-.02.05-.015.051-.02.05-.02.071-.015.051-.02.07-.019.067-.015.07-.04.172-.015.101-.02.122-.02.171v.582h1.02V4.34h-.617zm0 0" fill="#445ea0"/><path d="M9.77 5.848c.074.039.468.343.492.343.054 0 .726-.535.855-.597v-.02H9.445zm0 0" fill="#fccc13"/><path d="M5.46 6.191c0 .133.126.243.255.243h1.473v.05c.042-.066.023-.273 0-.343-.051-.176-.141-.13-.2-.207l-1.527.003zm0 0" fill="#ffe1b6"/><path d="M10.68 6.64c-.117-.07-.668.012-.856-.019-.105-.016-.054-.637-.054-.773l-.325-.274c-.027.031-.039.031-.039.086v.91c0 .04.016.04.04.07zm0 0" fill="#ef9714"/><path d="M9.77 5.848c0 .136-.051.757.054.773.188.031.739-.05.856.02h.437V5.594c-.129.062-.8.597-.855.597-.024 0-.418-.304-.492-.343zm0 0" fill="#ffaf10"/><path d="M5.168 6.45c.012.116.11.241.238.241H6.97c.11 0 .21-.109.218-.207v-.05H5.716c-.13 0-.254-.11-.254-.243l-.024-.238h-.05c-.239.05-.219.227-.219.496zm0 0" fill="#ffc987"/><path d="M2.82 4.34V6.69l.075.036.328-.004-.04-.051v-2.18c-.011-.058-.035-.054-.035-.117v-.07c0-.051.02-.07.036-.102l.039-.273h-.364l-.039.03zm0 0" fill="#1a2b63"/><path d="M3.184 4.203c.054-.035.097-.086.183-.086h.035c.11 0 .22.102.22.207v.051c0 .105-.13.203-.235.203-.086 0-.149-.05-.203-.086v2.18l.039.05-.328.005 1.015-.004.04-.032V4.22l.003-.227-.078-.062h-.652zm0 0" fill="#293d7c"/><path d="M3.348 7.79c.101-.067.382-.306.382-.446 0-.11-.113-.242-.234-.242h-.055c-.117 0-.168.093-.238.136-.086-.058-.09-.136-.254-.136-.015.058-.054.082-.054.156 0 .168.335.457.453.531zm0 0" fill="#fe3745"/><path d="M3.348 7.79c-.118-.075-.453-.364-.453-.532 0-.074.039-.098.054-.156-.136 0-.254.093-.254.207v.066c0 .113.461.535.508.535.05 0 .121-.09.145-.12zm0 0" fill="#b90b2c"/><path d="M5.078 8.73c-.027-.035-.055-.043-.055-.082V7.582c0-.05.016-.102.07-.102h.15v1.25h.015V7.46h-.453c-.024.032-.035.032-.035.071v1.133c0 .04.011.04.035.066zm0 0" fill="#edf6ff"/><path d="M5.078 8.73h.164V7.48h-.148c-.055 0-.07.051-.07.102v1.066c0 .04.027.047.054.082zm0 0" fill="#edf6ff"/><path d="M8.988 8.8c.196 0 .547.036.547-.136V7.566c0-.21-.328-.156-.547-.156zm0 0" fill="#293d7c"/><path d="M2.71 8.543c.056.035.462.344.474.344.078 0 .808-.532.855-.602L2.422 8.27h-.055v.015zm0 0" fill="#fccc13"/><path d="M5.258 7.46v1.27l.02.22.398.007c-.031-.031-.055-.043-.055-.105V7.324c0-.039.016-.035.04-.066h-.329l-.074.031zm0 0" fill="#b90b2c"/><path d="M5.676 8.957l1.21.004.063-.09V7.324l-.035-.062-1.582-.004h.328c-.023.031-.039.027-.039.066v1.528c0 .062.024.074.055.105zm0 0" fill="#fe3745"/><path d="M2.348 9.332l.035.02h.367v-.036h-.04v-.773l-.343-.258h-.02zm0 0" fill="#ef9714"/><path d="M2.71 8.543v.773h.04v.036h.652c.078-.047.305-.02.418-.02.274 0 .239.047.239-.203 0-.149.03-.77-.02-.844-.047.07-.777.602-.855.602-.012 0-.418-.309-.473-.344zm0 0" fill="#ffaf10"/><path d="M6.95 7.324v1.547l1.456.82V6.52zm0 0" fill="#edf6ff"/><path d="M8.406 6.52v3.5l.02.035.035.015h.328c-.027-.035-.055-.043-.055-.086V6.211c0-.04.016-.04.036-.07h-.31c-.081.117-.054.195-.054.379zm0 0" fill="#b90b2c"/><path d="M8.79 10.07h.144l.035-.015.02-.02V7.41l-.016-1.258-.203-.011c-.02.03-.036.03-.036.07v3.773c0 .043.028.051.055.086zm0 0" fill="#fe3745"/><path d="M3.348 7.79c-.024.03-.094.12-.145.12-.047 0-.508-.422-.508-.535v-.066c0-.114.118-.207.254-.207.164 0 .168.078.254.136.07-.043.121-.136.238-.136h.055c.121 0 .234.132.234.242 0 .14-.28.379-.382.445zM5.77 1.901l-.149.02-.105.016-.11.015-.093.02-.07.015-.095.02-.054.015-.07.016-.055.02-.074.015-.055.016-.055.02-.035.015-.055.02-.054.015-.036.016-.054.02-.04.015-.054.02-.07.03-.04.02-.035.016-.035.02-.035.015-.039.016-.035.02-.035.015-.04.02-.034.015-.02.016-.035.02-.035.015-.02.02-.035.015-.039.016-.016.02-.039.015-.015.015-.04.02-.015.015-.04.02-.015.016-.039.015-.015.02-.02.015-.035.02-.02.016-.015.015-.04.02-.034.035-.02.015-.035.016-.055.055-.02.015-.015.016-.039.02-.035.035-.02.015-.035.036-.02.015-.035.035-.02.016-.015.02-.039.03-.015.02-.02.016-.035.035-.02.016-.07.07-.02.016-.019.035-.016.02-.039.03-.015.02-.02.016-.02.035-.035.035-.02.031-.015.02-.02.015-.019.02-.015.031-.02.02-.02.035-.015.015-.02.036-.02.015-.015.02-.02.031-.019.035-.015.02-.02.031-.02.02-.015.035-.02.03-.02.02-.015.032-.039.07-.015.016-.02.035-.016.035-.039.07-.015.032-.02.035v.035h.617v-.38l.04-.03h1.015l.078.062-.004.227c.492-.106.074-1.7.711-1.7h.418c.184 0 .274.153.274.344v.825h1.254c.222 0 .402-.036.515.082.063.066.152.34.066.468-.011.133-.113.149-.199.203.29.008.274.211.274.48 0 .15-.078.231-.203.259.23.187.203.105.203.5 0 .16-.102.254-.274.254.059.078.149.03.2.207.023.07.042.277 0 .343-.008.098-.11.207-.22.207H5.407c-.129 0-.226-.125-.238-.242H3.949v.242l-.039.032-1.015.004-.075-.036v-.378H1.8v.156l.02.172.02.117.015.105.04.172.015.067.02.07.02.066.015.051.02.07.019.051.016.05.02.056.019.03.015.056.02.05.02.035.015.051.02.035.019.032.016.035.02.05.019.036.015.035.02.035.02.031.015.036.02.035.015.015.04.07.015.036.02.015.019.036 1.617.015c.05.074.02.695.02.844 0 .25.035.203-.239.203-.113 0-.34-.027-.418.02l.02.015.035.016.02.02.02.015.015.02.039.015.035.035.035.016.035.035.04.016.015.02.039.015.016.02.039.015.015.016.04.02.015.015.04.015.034.02.02.016.035.02.035.015.02.015.035.02.039.015.035.02.035.016.04.015.034.02.035.015.036.02.039.016.035.015.035.02.055.015.039.02.054.016.036.015.054.02.055.015.035.02.11.031.074.02.054.015.07.016.055.02.094.015.07.02.094.015.11.016.105.02.149.015.218.02h.543l.219-.02.148-.016.106-.02.11-.015.093-.015.07-.02.094-.016.055-.02.07-.015.055-.015.074-.02.11-.031.035-.02.054-.015.055-.02.035-.015.055-.016.039-.02.055-.015.035-.02.035-.015.039-.016.035-.02.035-.015.035-.02.04-.015.035-.016.035-.02.02-.015V9.69l-1.458-.82-.062.09-1.211-.004-.399-.008-.02-.219h-.452c-.024-.027-.035-.027-.035-.066V7.531c0-.039.011-.039.035-.07h.453v-.172l.074-.031 1.582.004.035.062 1.457-.804c0-.184-.027-.262.055-.38h.309l.203.012.015 1.258c.219 0 .547-.055.547.156v1.098c0 .172-.351.137-.547.137v.636h.02l.015-.019.02-.016.02-.02.035-.015.02-.015.015-.02.02-.016.034-.035.04-.015.015-.02.02-.016.035-.035.02-.015.035-.035.02-.016.054-.055.02-.015.034-.036.02-.015.016-.02.039-.031.015-.02.02-.015.015-.02.02-.015.02-.035.035-.036.02-.015.034-.035.02-.036.016-.015.02-.016.019-.035.035-.035.02-.016.015-.035.02-.015.019-.036.016-.02.02-.03.034-.036.04-.07.015-.016.02-.035.019-.015.016-.035.02-.036.019-.015.015-.035.04-.07.015-.016.02-.036.015-.035.02-.03.02-.036.015-.035.02-.035.019-.051.016-.035.02-.032.019-.035.015-.05.02-.036.02-.05.015-.055.02-.031.019-.055.016-.05.02-.052.019-.066.015-.055.02-.066.02-.07.015-.067.04-.172.015-.105V6.64H9.445c-.023-.032-.039-.032-.039-.07v-.91c0-.056.012-.056.04-.087h1.253V5.56l-.02-.122-.015-.101-.039-.172-.016-.07-.02-.067-.019-.07-.015-.05-.02-.071-.02-.05c-.1-.048-.726-.036-.824.01-.117.052-.312.434-.41.434-.054 0-.277-.308-.32-.367-.11-.14-.344-.093-.59-.093l-.402-.008c-.008-.047-.016-.051-.016-.098V3.051c0-.047.04-.063.07-.082h1.22v-.02l-.016-.015-.04-.02-.015-.016-.02-.015-.054-.055-.036-.015-.019-.016-.035-.035-.04-.02-.015-.015-.02-.016-.035-.02-.02-.015-.015-.02-.039-.015-.015-.016-.04-.02-.015-.015-.04-.02-.015-.015-.039-.016-.015-.02-.04-.015-.035-.016-.02-.02-.034-.015-.036-.02-.02-.015-.034-.016-.04-.02-.034-.015-.036-.02-.039-.015-.035-.016-.035-.02-.035-.015-.04-.02-.07-.03-.054-.02-.04-.016-.054-.02-.035-.015-.055-.015-.054-.02-.036-.016-.054-.02-.055-.015-.074-.015h-.055c.047.082.184.296.184.41v.273c0 .38-.461.797-.836.824-.043.012-.043.02-.094.02h-.055c-.558 0-1.035-.43-1.035-.945a.85.85 0 0 1 .113-.442c.098-.18.16-.187.25-.312h-.035zm0 0" fill="#91e0e8"/></g></svg>