<?xml version="1.0" encoding="UTF-8"?>
<svg xmlns="http://www.w3.org/2000/svg" xmlns:xlink="http://www.w3.org/1999/xlink" width="80pt" height="40pt" viewBox="0 0 80 40" version="1.1">
<g id="surface1">
<path style=" stroke:none;fill-rule:evenodd;fill:rgb(100%,100%,100%);fill-opacity:1;" d="M 36.761719 21.390625 L 36.792969 21.121094 L 36.828125 20.949219 L 36.863281 20.746094 L 36.894531 20.613281 L 36.929688 20.476562 L 36.964844 20.375 L 36.996094 20.242188 L 37.066406 20.039062 L 37.097656 19.9375 L 37.132812 19.867188 L 37.167969 19.765625 L 37.199219 19.699219 L 37.234375 19.632812 L 37.269531 19.53125 L 37.300781 19.460938 L 37.371094 19.328125 L 37.402344 19.257812 L 37.472656 19.125 L 37.503906 19.089844 L 37.539062 19.023438 L 37.574219 18.953125 L 37.605469 18.921875 L 37.640625 18.851562 L 37.671875 18.785156 L 37.707031 18.75 L 37.742188 18.683594 L 37.773438 18.648438 L 37.808594 18.617188 L 37.84375 18.546875 L 37.875 18.515625 L 37.910156 18.445312 L 37.945312 18.414062 L 37.976562 18.378906 L 38.011719 18.3125 L 38.046875 18.277344 L 38.078125 18.242188 L 38.113281 18.210938 L 38.148438 18.175781 L 38.179688 18.109375 L 38.757812 17.53125 L 38.824219 17.5 L 38.960938 17.363281 L 39.027344 17.328125 L 39.0625 17.296875 L 39.09375 17.261719 L 39.164062 17.230469 L 39.195312 17.195312 L 39.265625 17.160156 L 39.332031 17.09375 L 39.398438 17.058594 L 39.433594 17.027344 L 39.5 16.992188 L 39.570312 16.957031 L 39.601562 16.925781 L 39.671875 16.890625 L 39.738281 16.855469 L 39.773438 16.824219 L 39.90625 16.753906 L 39.976562 16.722656 L 40.109375 16.652344 L 40.179688 16.621094 L 40.28125 16.585938 L 40.347656 16.550781 L 40.414062 16.519531 L 40.515625 16.484375 L 40.585938 16.449219 L 40.6875 16.417969 L 40.785156 16.382812 L 40.886719 16.347656 L 41.023438 16.316406 L 41.125 16.28125 L 41.261719 16.246094 L 41.394531 16.214844 C 42.28125 16.066406 43.042969 16.070312 43.898438 16.214844 L 44.035156 16.246094 L 44.171875 16.28125 L 44.273438 16.316406 L 44.40625 16.347656 L 44.609375 16.417969 L 44.710938 16.449219 L 44.78125 16.484375 L 44.882812 16.519531 L 44.949219 16.550781 L 45.015625 16.585938 L 45.117188 16.621094 L 45.1875 16.652344 L 45.320312 16.722656 L 45.390625 16.753906 L 45.523438 16.824219 L 45.558594 16.855469 L 45.625 16.890625 L 45.695312 16.925781 L 45.726562 16.957031 L 45.796875 16.992188 L 45.863281 17.027344 L 45.898438 17.058594 L 45.964844 17.09375 L 46.03125 17.160156 L 46.101562 17.195312 L 46.132812 17.230469 L 46.203125 17.261719 L 46.234375 17.296875 L 46.269531 17.328125 L 46.335938 17.363281 L 46.472656 17.5 L 46.539062 17.53125 L 46.980469 17.972656 L 47.011719 18.007812 L 47.046875 18.039062 L 47.117188 18.109375 L 47.148438 18.175781 L 47.285156 18.3125 L 47.316406 18.378906 L 47.351562 18.414062 L 47.386719 18.445312 L 47.417969 18.515625 L 47.453125 18.546875 L 47.488281 18.617188 L 47.554688 18.683594 L 47.589844 18.75 L 47.621094 18.785156 L 47.65625 18.851562 L 47.691406 18.921875 L 47.722656 18.953125 L 47.757812 19.023438 L 47.792969 19.089844 L 47.824219 19.125 L 47.894531 19.257812 L 47.925781 19.328125 L 47.996094 19.460938 L 48.027344 19.53125 L 48.0625 19.632812 L 48.097656 19.699219 L 48.128906 19.765625 L 48.164062 19.867188 L 48.199219 19.9375 L 48.230469 20.039062 L 48.300781 20.242188 L 48.332031 20.375 L 48.367188 20.476562 L 48.402344 20.613281 L 48.433594 20.746094 L 48.46875 20.949219 L 48.503906 21.121094 L 48.535156 21.390625 L 48.535156 22.609375 L 48.503906 22.878906 L 48.46875 23.050781 L 48.433594 23.253906 L 48.402344 23.386719 L 48.367188 23.523438 L 48.332031 23.625 L 48.300781 23.757812 L 48.230469 23.960938 L 48.199219 24.0625 L 48.164062 24.132812 L 48.128906 24.234375 L 48.097656 24.300781 L 48.0625 24.367188 L 48.027344 24.46875 L 47.996094 24.539062 L 47.925781 24.671875 L 47.894531 24.742188 L 47.824219 24.875 L 47.792969 24.910156 L 47.757812 24.976562 L 47.722656 25.046875 L 47.691406 25.078125 L 47.65625 25.148438 L 47.621094 25.214844 L 47.589844 25.25 L 47.554688 25.316406 L 47.488281 25.382812 L 47.453125 25.453125 L 47.417969 25.484375 L 47.386719 25.554688 L 47.351562 25.585938 L 47.316406 25.621094 L 47.285156 25.65625 L 47.25 25.722656 L 47.148438 25.824219 L 47.117188 25.890625 L 47.046875 25.960938 L 47.011719 25.992188 L 46.980469 26.027344 L 46.539062 26.46875 L 46.472656 26.5 L 46.4375 26.535156 L 46.40625 26.570312 L 46.371094 26.601562 L 46.304688 26.636719 L 46.269531 26.671875 L 46.234375 26.703125 L 46.203125 26.738281 L 46.132812 26.773438 L 46.101562 26.804688 L 46.03125 26.839844 L 45.964844 26.90625 L 45.898438 26.941406 L 45.863281 26.972656 L 45.796875 27.007812 L 45.726562 27.042969 L 45.695312 27.074219 L 45.625 27.109375 L 45.558594 27.144531 L 45.523438 27.175781 L 45.390625 27.246094 L 45.320312 27.277344 L 45.1875 27.347656 L 45.117188 27.378906 L 45.015625 27.414062 L 44.949219 27.449219 L 44.882812 27.480469 L 44.78125 27.515625 L 44.710938 27.550781 L 44.609375 27.582031 L 44.40625 27.652344 L 44.273438 27.683594 L 44.171875 27.71875 L 44.035156 27.753906 C 43.277344 27.90625 42.542969 27.953125 41.769531 27.855469 L 41.597656 27.820312 L 41.394531 27.785156 L 41.261719 27.753906 L 41.125 27.71875 L 41.023438 27.683594 L 40.886719 27.652344 L 40.785156 27.617188 L 40.6875 27.582031 L 40.585938 27.550781 L 40.515625 27.515625 L 40.414062 27.480469 L 40.347656 27.449219 L 40.28125 27.414062 L 40.179688 27.378906 L 40.109375 27.347656 L 39.976562 27.277344 L 39.90625 27.246094 L 39.773438 27.175781 L 39.738281 27.144531 L 39.671875 27.109375 L 39.601562 27.074219 L 39.570312 27.042969 L 39.5 27.007812 L 39.433594 26.972656 L 39.398438 26.941406 L 39.332031 26.90625 L 39.265625 26.839844 L 39.195312 26.804688 L 39.164062 26.773438 L 39.09375 26.738281 L 39.0625 26.703125 L 39.027344 26.671875 L 38.960938 26.636719 L 38.925781 26.601562 L 38.890625 26.570312 L 38.859375 26.535156 L 38.824219 26.5 L 38.757812 26.46875 L 38.179688 25.890625 L 38.148438 25.824219 L 38.113281 25.789062 L 38.078125 25.757812 L 38.046875 25.722656 L 38.011719 25.6875 L 37.976562 25.621094 L 37.945312 25.585938 L 37.910156 25.554688 L 37.875 25.484375 L 37.84375 25.453125 L 37.808594 25.382812 L 37.773438 25.351562 L 37.742188 25.316406 L 37.707031 25.25 L 37.671875 25.214844 L 37.640625 25.148438 L 37.605469 25.078125 L 37.574219 25.046875 L 37.539062 24.976562 L 37.503906 24.910156 L 37.472656 24.875 L 37.402344 24.742188 L 37.371094 24.671875 L 37.300781 24.539062 L 37.269531 24.46875 L 37.234375 24.367188 L 37.199219 24.300781 L 37.167969 24.234375 L 37.132812 24.132812 L 37.097656 24.0625 L 37.066406 23.960938 L 36.996094 23.757812 L 36.964844 23.625 L 36.929688 23.523438 L 36.894531 23.386719 L 36.863281 23.253906 L 36.828125 23.050781 L 36.792969 22.878906 L 36.761719 22.609375 Z M 41.734375 15.265625 L 41.496094 15.300781 L 41.292969 15.332031 L 41.160156 15.367188 L 41.023438 15.402344 L 40.886719 15.433594 L 40.753906 15.46875 L 40.652344 15.503906 L 40.550781 15.535156 L 40.347656 15.605469 L 40.246094 15.636719 L 40.179688 15.671875 L 40.078125 15.707031 L 40.007812 15.738281 L 39.90625 15.773438 L 39.839844 15.808594 L 39.773438 15.839844 L 39.703125 15.875 L 39.636719 15.910156 L 39.570312 15.941406 L 39.5 15.976562 L 39.433594 16.011719 L 39.367188 16.042969 L 39.296875 16.078125 L 39.265625 16.113281 L 39.195312 16.144531 L 39.128906 16.179688 L 39.09375 16.214844 L 39.027344 16.246094 L 38.960938 16.28125 L 38.925781 16.316406 L 38.859375 16.347656 L 38.789062 16.417969 L 38.722656 16.449219 L 38.6875 16.484375 L 38.621094 16.519531 L 38.585938 16.550781 L 38.554688 16.585938 L 38.484375 16.621094 L 38.382812 16.722656 L 38.316406 16.753906 L 38.28125 16.789062 L 38.25 16.824219 L 38.214844 16.855469 L 38.179688 16.890625 L 38.148438 16.925781 L 38.078125 16.957031 L 38.046875 16.992188 L 38.011719 17.027344 L 37.976562 17.058594 L 37.945312 17.09375 L 37.910156 17.128906 L 37.875 17.160156 L 37.84375 17.195312 L 37.808594 17.230469 L 37.773438 17.261719 L 37.742188 17.296875 L 37.707031 17.328125 L 37.671875 17.363281 L 37.640625 17.398438 L 37.605469 17.429688 L 37.574219 17.5 L 37.539062 17.53125 L 37.503906 17.566406 L 37.472656 17.601562 L 37.4375 17.632812 L 37.402344 17.667969 L 37.371094 17.734375 L 37.269531 17.835938 L 37.234375 17.90625 L 37.199219 17.9375 L 37.167969 17.972656 L 37.132812 18.039062 L 37.097656 18.074219 L 37.066406 18.140625 L 36.996094 18.210938 L 36.964844 18.277344 L 36.929688 18.3125 L 36.894531 18.378906 L 36.863281 18.445312 L 36.828125 18.480469 L 36.792969 18.546875 L 36.761719 18.617188 L 36.726562 18.648438 L 36.691406 18.71875 L 36.660156 18.785156 L 36.625 18.851562 L 36.589844 18.921875 L 36.558594 18.988281 L 36.523438 19.054688 L 36.488281 19.125 L 36.457031 19.191406 L 36.421875 19.257812 L 36.386719 19.359375 L 36.355469 19.429688 L 36.320312 19.53125 L 36.285156 19.597656 L 36.253906 19.699219 L 36.183594 19.902344 L 36.152344 20.003906 L 36.117188 20.105469 L 36.082031 20.242188 L 36.050781 20.375 L 36.015625 20.511719 L 35.980469 20.644531 L 35.949219 20.847656 L 35.914062 21.085938 L 35.878906 21.355469 L 35.878906 22.644531 L 35.914062 22.914062 L 35.949219 23.152344 L 35.980469 23.355469 L 36.015625 23.488281 L 36.050781 23.625 L 36.082031 23.757812 L 36.117188 23.894531 L 36.152344 23.996094 L 36.183594 24.097656 L 36.253906 24.300781 L 36.285156 24.402344 L 36.320312 24.46875 L 36.355469 24.570312 L 36.386719 24.640625 L 36.421875 24.742188 L 36.457031 24.808594 L 36.488281 24.875 L 36.523438 24.945312 L 36.558594 25.011719 L 36.589844 25.078125 L 36.625 25.148438 L 36.660156 25.214844 L 36.691406 25.28125 L 36.726562 25.351562 L 36.761719 25.382812 L 36.792969 25.453125 L 36.828125 25.519531 L 36.863281 25.554688 L 36.894531 25.621094 L 36.929688 25.65625 L 36.964844 25.722656 L 36.996094 25.789062 L 37.066406 25.859375 L 37.097656 25.925781 L 37.132812 25.960938 L 37.167969 26.027344 L 37.199219 26.0625 L 37.234375 26.09375 L 37.269531 26.164062 L 37.371094 26.265625 L 37.402344 26.332031 L 37.4375 26.367188 L 37.472656 26.398438 L 37.503906 26.433594 L 37.539062 26.46875 L 37.574219 26.5 L 37.605469 26.570312 L 37.640625 26.601562 L 37.671875 26.636719 L 37.707031 26.671875 L 37.742188 26.703125 L 37.773438 26.738281 L 37.808594 26.773438 L 37.84375 26.804688 L 37.875 26.839844 L 37.910156 26.871094 L 37.945312 26.90625 L 37.976562 26.941406 L 38.011719 26.972656 L 38.046875 27.007812 L 38.078125 27.042969 L 38.148438 27.074219 L 38.179688 27.109375 L 38.214844 27.144531 L 38.25 27.175781 L 38.28125 27.210938 L 38.316406 27.246094 L 38.382812 27.277344 L 38.484375 27.378906 L 38.554688 27.414062 L 38.585938 27.449219 L 38.621094 27.480469 L 38.6875 27.515625 L 38.722656 27.550781 L 38.789062 27.582031 L 38.859375 27.652344 L 38.925781 27.683594 L 38.992188 27.71875 L 39.027344 27.753906 L 39.09375 27.785156 L 39.128906 27.820312 L 39.195312 27.855469 L 39.265625 27.886719 L 39.296875 27.921875 L 39.367188 27.957031 L 39.433594 27.988281 L 39.5 28.023438 L 39.570312 28.058594 L 39.636719 28.089844 L 39.703125 28.125 L 39.773438 28.160156 L 39.839844 28.191406 L 39.90625 28.226562 L 40.007812 28.261719 L 40.078125 28.292969 L 40.179688 28.328125 L 40.246094 28.363281 L 40.347656 28.394531 L 40.550781 28.464844 L 40.652344 28.496094 L 40.753906 28.53125 L 40.886719 28.566406 L 41.023438 28.597656 L 41.160156 28.632812 L 41.328125 28.667969 L 41.496094 28.699219 L 41.734375 28.734375 C 42.300781 28.785156 42.988281 28.824219 43.5625 28.734375 L 43.800781 28.699219 L 43.96875 28.667969 L 44.136719 28.632812 L 44.273438 28.597656 L 44.40625 28.566406 L 44.542969 28.53125 L 44.644531 28.496094 L 44.746094 28.464844 L 44.949219 28.394531 L 45.050781 28.363281 L 45.117188 28.328125 L 45.21875 28.292969 L 45.289062 28.261719 L 45.390625 28.226562 L 45.457031 28.191406 L 45.523438 28.160156 L 45.59375 28.125 L 45.660156 28.089844 L 45.726562 28.058594 L 45.796875 28.023438 L 45.863281 27.988281 L 45.929688 27.957031 L 46 27.921875 L 46.03125 27.886719 L 46.101562 27.855469 L 46.167969 27.820312 L 46.203125 27.785156 L 46.269531 27.753906 L 46.304688 27.71875 L 46.371094 27.683594 L 46.4375 27.652344 L 46.507812 27.582031 L 46.574219 27.550781 L 46.609375 27.515625 L 46.675781 27.480469 L 46.710938 27.449219 L 46.742188 27.414062 L 46.8125 27.378906 L 46.914062 27.277344 L 46.980469 27.246094 L 47.011719 27.210938 L 47.046875 27.175781 L 47.082031 27.144531 L 47.117188 27.109375 L 47.148438 27.074219 L 47.214844 27.042969 L 47.453125 26.804688 L 47.488281 26.773438 L 47.519531 26.738281 L 47.554688 26.703125 L 47.589844 26.671875 L 47.621094 26.636719 L 47.65625 26.601562 L 47.691406 26.570312 L 47.722656 26.5 L 47.757812 26.46875 L 47.792969 26.433594 L 47.824219 26.398438 L 47.859375 26.367188 L 47.894531 26.332031 L 47.925781 26.265625 L 48.027344 26.164062 L 48.0625 26.09375 L 48.097656 26.0625 L 48.128906 26.027344 L 48.164062 25.960938 L 48.199219 25.925781 L 48.230469 25.859375 L 48.300781 25.789062 L 48.332031 25.722656 L 48.367188 25.65625 L 48.402344 25.621094 L 48.433594 25.554688 L 48.46875 25.519531 L 48.503906 25.453125 L 48.535156 25.382812 L 48.570312 25.351562 L 48.605469 25.28125 L 48.636719 25.214844 L 48.671875 25.148438 L 48.707031 25.078125 L 48.738281 25.011719 L 48.773438 24.945312 L 48.808594 24.875 L 48.839844 24.808594 L 48.875 24.742188 L 48.910156 24.640625 L 48.941406 24.570312 L 48.976562 24.46875 L 49.011719 24.402344 L 49.042969 24.300781 L 49.113281 24.097656 L 49.144531 23.996094 L 49.179688 23.894531 L 49.214844 23.757812 L 49.246094 23.625 L 49.28125 23.488281 L 49.316406 23.320312 L 49.347656 23.152344 L 49.382812 22.914062 L 49.417969 22.644531 L 49.417969 21.355469 L 49.382812 21.085938 L 49.347656 20.847656 L 49.316406 20.679688 L 49.28125 20.511719 L 49.246094 20.375 L 49.214844 20.242188 L 49.179688 20.105469 L 49.144531 20.003906 L 49.113281 19.902344 L 49.042969 19.699219 L 49.011719 19.597656 L 48.976562 19.53125 L 48.941406 19.429688 L 48.910156 19.359375 L 48.875 19.257812 L 48.839844 19.191406 L 48.808594 19.125 L 48.773438 19.054688 L 48.738281 18.988281 L 48.707031 18.921875 L 48.671875 18.851562 L 48.636719 18.785156 L 48.605469 18.71875 L 48.570312 18.648438 L 48.535156 18.617188 L 48.503906 18.546875 L 48.46875 18.480469 L 48.433594 18.445312 L 48.402344 18.378906 L 48.367188 18.34375 L 48.332031 18.277344 L 48.300781 18.210938 L 48.230469 18.140625 L 48.199219 18.074219 L 48.164062 18.039062 L 48.128906 17.972656 L 48.097656 17.9375 L 48.0625 17.90625 L 48.027344 17.835938 L 47.925781 17.734375 L 47.894531 17.667969 L 47.859375 17.632812 L 47.824219 17.601562 L 47.792969 17.566406 L 47.757812 17.53125 L 47.722656 17.5 L 47.691406 17.429688 L 47.65625 17.398438 L 47.621094 17.363281 L 47.589844 17.328125 L 47.554688 17.296875 L 47.214844 16.957031 L 47.148438 16.925781 L 47.117188 16.890625 L 47.082031 16.855469 L 47.046875 16.824219 L 47.011719 16.789062 L 46.980469 16.753906 L 46.914062 16.722656 L 46.8125 16.621094 L 46.742188 16.585938 L 46.710938 16.550781 L 46.675781 16.519531 L 46.609375 16.484375 L 46.574219 16.449219 L 46.507812 16.417969 L 46.4375 16.347656 L 46.371094 16.316406 L 46.304688 16.28125 L 46.269531 16.246094 L 46.203125 16.214844 L 46.167969 16.179688 L 46.101562 16.144531 L 46.03125 16.113281 L 46 16.078125 L 45.929688 16.042969 L 45.863281 16.011719 L 45.796875 15.976562 L 45.726562 15.941406 L 45.660156 15.910156 L 45.59375 15.875 L 45.523438 15.839844 L 45.457031 15.808594 L 45.390625 15.773438 L 45.289062 15.738281 L 45.21875 15.707031 L 45.117188 15.671875 L 45.050781 15.636719 L 44.949219 15.605469 L 44.746094 15.535156 L 44.644531 15.503906 L 44.542969 15.46875 L 44.40625 15.433594 L 44.273438 15.402344 L 44 15.332031 L 43.800781 15.300781 L 43.5625 15.265625 C 43.472656 15.253906 43.382812 15.242188 43.292969 15.230469 C 42.816406 15.179688 42.394531 15.179688 42.003906 15.230469 Z M 41.734375 15.265625 "/>
<path style=" stroke:none;fill-rule:evenodd;fill:rgb(100%,100%,100%);fill-opacity:1;" d="M 43.496094 19.597656 L 43.425781 19.632812 L 43.359375 19.699219 L 43.292969 19.734375 L 43.257812 19.765625 L 43.222656 19.800781 L 43.191406 19.835938 L 43.121094 19.867188 L 43.089844 19.902344 L 43.019531 19.9375 L 42.988281 19.96875 L 42.917969 20.003906 L 42.886719 20.039062 L 42.886719 20.105469 L 42.917969 20.140625 L 42.953125 20.207031 L 42.988281 20.242188 L 43.019531 20.308594 L 43.054688 20.34375 L 43.089844 20.375 L 43.121094 20.410156 L 43.15625 20.476562 L 43.191406 20.511719 L 43.222656 20.546875 L 43.257812 20.613281 L 43.292969 20.644531 L 43.324219 20.714844 L 43.359375 20.746094 L 43.394531 20.78125 L 43.425781 20.816406 L 43.460938 20.882812 L 43.496094 20.917969 L 43.527344 20.984375 L 43.5625 21.019531 L 43.597656 21.050781 L 43.628906 21.121094 L 43.664062 21.152344 L 43.699219 21.222656 L 43.800781 21.324219 L 43.832031 21.390625 L 43.867188 21.425781 L 43.902344 21.492188 L 43.933594 21.527344 L 43.96875 21.558594 L 44.003906 21.628906 L 44.035156 21.660156 L 39.941406 21.695312 L 39.941406 22.574219 L 44.035156 22.609375 L 44.003906 22.644531 L 43.96875 22.710938 L 43.902344 22.777344 L 43.867188 22.847656 L 43.832031 22.878906 L 43.800781 22.914062 L 43.765625 22.949219 L 43.730469 23.015625 L 43.699219 23.050781 L 43.664062 23.117188 L 43.628906 23.152344 L 43.597656 23.21875 L 43.5625 23.253906 L 43.527344 23.285156 L 43.496094 23.355469 L 43.460938 23.386719 L 43.425781 23.421875 L 43.394531 23.457031 L 43.359375 23.523438 L 43.324219 23.558594 L 43.292969 23.625 L 43.257812 23.660156 L 43.222656 23.726562 L 43.121094 23.828125 L 43.089844 23.894531 L 43.054688 23.929688 L 43.019531 23.960938 L 42.988281 24.03125 L 42.953125 24.0625 L 42.917969 24.132812 L 42.886719 24.164062 L 42.886719 24.234375 L 42.953125 24.265625 L 42.988281 24.300781 L 43.019531 24.335938 L 43.089844 24.367188 L 43.121094 24.402344 L 43.191406 24.4375 L 43.222656 24.46875 L 43.292969 24.503906 L 43.324219 24.539062 L 43.359375 24.570312 L 43.394531 24.605469 L 43.460938 24.640625 L 43.496094 24.671875 L 43.527344 24.707031 L 43.597656 24.707031 L 43.628906 24.671875 L 43.664062 24.605469 L 43.730469 24.539062 L 43.765625 24.46875 L 43.800781 24.4375 L 43.832031 24.402344 L 43.867188 24.367188 L 43.902344 24.300781 L 43.933594 24.265625 L 43.96875 24.199219 L 44.003906 24.164062 L 44.035156 24.097656 L 44.070312 24.0625 L 44.105469 24.03125 L 44.136719 23.996094 L 44.171875 23.929688 L 44.207031 23.894531 L 44.238281 23.859375 L 44.273438 23.792969 L 44.304688 23.757812 L 44.339844 23.691406 L 44.375 23.660156 L 44.40625 23.589844 L 44.441406 23.558594 L 44.476562 23.523438 L 44.507812 23.488281 L 44.542969 23.421875 L 44.609375 23.355469 L 44.644531 23.285156 L 44.679688 23.253906 L 44.710938 23.183594 L 44.746094 23.152344 L 44.78125 23.082031 L 44.882812 22.980469 L 44.914062 22.914062 L 44.949219 22.878906 L 44.984375 22.847656 L 45.015625 22.777344 L 45.050781 22.746094 L 45.085938 22.675781 L 45.117188 22.644531 L 45.152344 22.574219 L 45.1875 22.542969 L 45.21875 22.507812 L 45.253906 22.472656 L 45.289062 22.40625 L 45.320312 22.371094 L 45.355469 22.339844 L 45.390625 22.269531 L 45.421875 22.238281 L 45.457031 22.167969 L 45.457031 22.066406 L 45.421875 22.035156 L 45.390625 22 L 45.355469 21.933594 L 45.320312 21.898438 L 45.289062 21.863281 L 45.21875 21.730469 L 45.1875 21.695312 L 45.152344 21.660156 L 45.117188 21.628906 L 45.085938 21.59375 L 45.050781 21.527344 L 45.015625 21.492188 L 44.984375 21.425781 L 44.914062 21.355469 L 44.882812 21.289062 L 44.847656 21.253906 L 44.8125 21.222656 L 44.78125 21.152344 L 44.746094 21.121094 L 44.710938 21.085938 L 44.679688 21.019531 L 44.644531 20.984375 L 44.609375 20.917969 L 44.578125 20.882812 L 44.542969 20.847656 L 44.507812 20.78125 L 44.476562 20.746094 L 44.441406 20.714844 L 44.40625 20.644531 L 44.339844 20.578125 L 44.304688 20.511719 L 44.273438 20.476562 L 44.238281 20.410156 L 44.207031 20.375 L 44.171875 20.34375 L 44.136719 20.273438 L 44.035156 20.171875 L 44.003906 20.105469 L 43.96875 20.070312 L 43.933594 20.003906 L 43.902344 19.9375 L 43.800781 19.835938 L 43.765625 19.765625 L 43.730469 19.734375 L 43.699219 19.699219 L 43.664062 19.664062 L 43.628906 19.597656 L 43.597656 19.5625 L 43.527344 19.5625 Z M 43.496094 19.597656 "/>
</g>
</svg>
