<?xml version="1.0" encoding="UTF-8"?>
<svg xmlns="http://www.w3.org/2000/svg" xmlns:xlink="http://www.w3.org/1999/xlink" width="13pt" height="12pt" viewBox="0 0 13 12" version="1.1">
<g id="surface1">
<path style=" stroke:none;fill-rule:evenodd;fill:rgb(35.294118%,67.058824%,90.196078%);fill-opacity:1;" d="M 1.609375 1.902344 L 6.824219 1.902344 L 6.824219 1.589844 L 1.609375 1.589844 Z M 1.609375 1.902344 "/>
<path style=" stroke:none;fill-rule:evenodd;fill:rgb(67.45098%,80.784314%,90.588235%);fill-opacity:1;" d="M 3.882812 2.566406 L 4.550781 2.566406 L 4.550781 3.195312 L 3.882812 3.195312 Z M 3.863281 3.214844 L 4.570312 3.214844 L 4.570312 2.550781 L 3.863281 2.550781 Z M 3.863281 3.214844 "/>
<path style=" stroke:none;fill-rule:evenodd;fill:rgb(67.45098%,80.784314%,90.588235%);fill-opacity:1;" d="M 5.253906 3.195312 L 5.960938 3.214844 L 5.941406 2.550781 L 5.941406 3.195312 Z M 5.253906 3.195312 "/>
<path style=" stroke:none;fill-rule:evenodd;fill:rgb(67.45098%,80.784314%,90.588235%);fill-opacity:1;" d="M 3.882812 5.820312 L 3.882812 5.171875 L 4.550781 5.171875 L 4.550781 5.820312 L 4.570312 5.15625 L 3.863281 5.15625 Z M 3.882812 5.820312 "/>
<path style=" stroke:none;fill-rule:evenodd;fill:rgb(67.45098%,80.784314%,90.588235%);fill-opacity:1;" d="M 9.074219 5.171875 L 9.742188 5.171875 L 9.742188 5.800781 L 9.074219 5.800781 Z M 9.054688 5.820312 L 9.761719 5.820312 L 9.761719 5.15625 L 9.054688 5.15625 Z M 9.054688 5.820312 "/>
<path style=" stroke:none;fill-rule:evenodd;fill:rgb(35.294118%,67.058824%,90.196078%);fill-opacity:1;" d="M 3.882812 6.46875 L 4.550781 6.46875 L 4.570312 7.132812 L 3.863281 7.132812 Z M 2.492188 6.46875 L 3.175781 6.46875 L 3.175781 7.113281 L 2.492188 7.113281 Z M 5.253906 5.171875 L 5.941406 5.171875 L 5.941406 5.820312 L 5.253906 5.820312 Z M 4.550781 5.820312 L 3.882812 5.820312 L 3.863281 5.15625 L 4.570312 5.15625 Z M 2.492188 5.171875 L 3.175781 5.171875 L 3.175781 5.820312 L 2.492188 5.820312 Z M 5.253906 3.863281 L 5.941406 3.863281 L 5.941406 4.507812 L 5.253906 4.507812 Z M 3.863281 3.863281 L 4.570312 3.863281 L 4.570312 4.507812 L 3.863281 4.507812 Z M 2.492188 3.863281 L 3.175781 3.863281 L 3.175781 4.507812 L 2.492188 4.507812 Z M 5.941406 2.550781 L 5.960938 3.214844 L 5.253906 3.195312 L 5.253906 2.550781 Z M 3.863281 2.550781 L 4.570312 2.550781 L 4.570312 3.214844 L 3.863281 3.214844 Z M 2.492188 2.550781 L 3.175781 2.550781 L 3.175781 3.214844 L 2.492188 3.214844 Z M 1.609375 10.386719 L 3.175781 10.386719 L 3.175781 8.425781 L 5.253906 8.425781 L 5.253906 8.683594 L 5.882812 8.5 C 5.953125 8.457031 6.117188 8.464844 6.117188 8.390625 L 6.117188 8 C 5.976562 7.964844 5.789062 7.710938 5.785156 7.539062 L 5.765625 7.132812 L 5.253906 7.113281 L 5.253906 6.46875 L 5.765625 6.46875 C 5.90625 6.378906 6.074219 6.152344 6.332031 6.152344 L 6.53125 6.144531 L 6.78125 6.191406 L 6.824219 2.863281 L 6.824219 1.902344 L 1.609375 1.902344 Z M 1.609375 10.386719 "/>
<path style=" stroke:none;fill-rule:evenodd;fill:rgb(86.666667%,69.803922%,0%);fill-opacity:1;" d="M 8.878906 6.632812 L 10.625 6.632812 L 10.625 6.300781 L 8.878906 6.300781 Z M 8.878906 6.632812 "/>
<path style=" stroke:none;fill-rule:evenodd;fill:rgb(24.705882%,24.313725%,26.27451%);fill-opacity:1;" d="M 5.765625 6.46875 C 5.691406 6.59375 5.609375 6.699219 5.609375 6.890625 L 5.609375 7.113281 L 6.078125 7.113281 C 6.398438 7.113281 6.609375 6.90625 6.824219 6.800781 C 6.855469 6.941406 6.976562 7.109375 7.15625 7.113281 L 7.332031 7.113281 L 7.332031 6.890625 C 7.332031 6.75 7.21875 6.546875 7.148438 6.457031 C 7.015625 6.285156 6.910156 6.292969 6.785156 6.191406 L 6.53125 6.144531 L 6.332031 6.152344 C 6.074219 6.152344 5.90625 6.378906 5.765625 6.46875 Z M 5.765625 6.46875 "/>
<path style=" stroke:none;fill-rule:evenodd;fill:rgb(67.45098%,80.784314%,90.588235%);fill-opacity:1;" d="M 4.550781 6.46875 L 4.550781 7.113281 L 3.882812 7.113281 L 3.882812 6.46875 L 3.863281 7.132812 L 4.570312 7.132812 Z M 4.550781 6.46875 "/>
<path style=" stroke:none;fill-rule:evenodd;fill:rgb(100%,82.745098%,13.333333%);fill-opacity:1;" d="M 8.898438 6.964844 L 10.605469 6.964844 L 10.605469 7.28125 L 8.898438 7.28125 Z M 8.878906 6.300781 L 10.625 6.300781 L 10.625 6.632812 L 8.878906 6.632812 Z M 9.761719 5.820312 L 8.3125 5.820312 C 8.257812 5.863281 8.195312 5.890625 8.195312 5.988281 L 8.195312 7.613281 C 8.195312 7.726562 8.289062 7.78125 8.410156 7.78125 L 8.878906 7.78125 L 8.886719 8.597656 L 9.761719 7.78125 L 11.210938 7.78125 L 11.25 7.761719 L 11.289062 7.722656 L 11.308594 7.6875 L 11.308594 5.894531 L 11.289062 5.875 L 11.269531 5.859375 L 11.230469 5.820312 L 11.171875 5.800781 L 10.625 5.800781 Z M 9.761719 5.820312 "/>
<path style=" stroke:none;fill-rule:evenodd;fill:rgb(86.666667%,69.803922%,0%);fill-opacity:1;" d="M 8.898438 7.28125 L 10.605469 7.28125 L 10.605469 6.964844 L 8.898438 6.964844 Z M 8.898438 7.28125 "/>
<path style=" stroke:none;fill-rule:evenodd;fill:rgb(58.039216%,64.705882%,70.588235%);fill-opacity:1;" d="M 5.253906 7.113281 L 5.765625 7.132812 L 5.785156 7.539062 L 5.785156 7.132812 L 6.078125 7.113281 L 5.609375 7.113281 L 5.609375 6.890625 L 5.585938 7.113281 Z M 5.253906 7.113281 "/>
<path style=" stroke:none;fill-rule:evenodd;fill:rgb(99.215686%,85.098039%,66.666667%);fill-opacity:1;" d="M 6.078125 7.113281 L 5.785156 7.132812 L 5.785156 7.539062 C 5.789062 7.710938 5.976562 7.964844 6.117188 8 L 6.117188 8.390625 C 6.117188 8.464844 5.953125 8.457031 5.882812 8.5 L 6.472656 8.910156 L 7.058594 8.5 L 6.824219 8.425781 L 6.824219 8.039062 C 6.824219 8.015625 7.046875 7.835938 7.105469 7.695312 C 7.179688 7.511719 7.15625 7.351562 7.15625 7.113281 C 6.976562 7.109375 6.855469 6.941406 6.824219 6.800781 C 6.609375 6.90625 6.398438 7.113281 6.078125 7.113281 Z M 6.078125 7.113281 "/>
<path style=" stroke:none;fill-rule:evenodd;fill:rgb(0%,80%,70.196078%);fill-opacity:1;" d="M 5.253906 8.683594 C 4.765625 8.929688 4.902344 9.6875 4.902344 10.386719 L 5.429688 10.386719 L 5.429688 9.238281 L 5.785156 9.238281 L 5.785156 10.386719 L 7.15625 10.386719 L 7.15625 9.238281 L 7.507812 9.238281 L 7.507812 10.386719 L 8.019531 10.386719 C 8.019531 10.113281 8.0625 9.195312 7.984375 9.03125 C 7.902344 8.851562 7.816406 8.746094 7.632812 8.660156 C 7.546875 8.621094 7.160156 8.507812 7.058594 8.5 L 6.472656 8.910156 L 5.882812 8.5 Z M 5.253906 8.683594 "/>
<path style=" stroke:none;fill-rule:evenodd;fill:rgb(0%,70.196078%,61.568627%);fill-opacity:1;" d="M 5.429688 10.386719 L 5.785156 10.386719 L 5.785156 9.238281 L 5.429688 9.238281 Z M 5.429688 10.386719 "/>
<path style=" stroke:none;fill-rule:evenodd;fill:rgb(0%,70.196078%,61.568627%);fill-opacity:1;" d="M 7.15625 10.386719 L 7.507812 10.386719 L 7.507812 9.238281 L 7.15625 9.238281 Z M 7.15625 10.386719 "/>
<path style=" stroke:none;fill-rule:evenodd;fill:rgb(35.294118%,67.058824%,90.196078%);fill-opacity:1;" d="M 9.054688 3.863281 L 9.761719 3.863281 L 9.761719 4.507812 L 9.054688 4.507812 Z M 7.683594 3.863281 L 8.371094 3.863281 L 8.371094 4.507812 L 7.683594 4.507812 Z M 6.785156 6.191406 C 6.910156 6.292969 7.015625 6.285156 7.148438 6.457031 C 7.21875 6.546875 7.332031 6.75 7.332031 6.890625 L 7.332031 7.113281 L 7.15625 7.113281 C 7.15625 7.351562 7.179688 7.511719 7.105469 7.695312 C 7.046875 7.835938 6.824219 8.015625 6.824219 8.039062 L 6.824219 8.425781 L 7.058594 8.5 C 7.160156 8.507812 7.546875 8.621094 7.632812 8.660156 C 7.816406 8.746094 7.902344 8.851562 7.984375 9.03125 C 8.0625 9.195312 8.019531 10.113281 8.019531 10.386719 L 10.625 10.386719 L 10.625 7.78125 L 9.761719 7.78125 L 8.886719 8.597656 L 8.878906 7.78125 L 8.410156 7.78125 C 8.289062 7.78125 8.195312 7.726562 8.195312 7.613281 L 8.195312 5.988281 C 8.195312 5.890625 8.257812 5.863281 8.3125 5.820312 L 7.683594 5.820312 L 7.683594 5.171875 L 8.371094 5.171875 L 8.371094 5.820312 L 9.054688 5.820312 L 9.054688 5.15625 L 9.761719 5.15625 L 9.761719 5.820312 L 10.625 5.800781 L 10.625 2.863281 L 6.824219 2.863281 Z M 6.785156 6.191406 "/>
</g>
</svg>
