<?xml version="1.0" encoding="UTF-8"?>
<svg xmlns="http://www.w3.org/2000/svg" xmlns:xlink="http://www.w3.org/1999/xlink" width="13pt" height="12pt" viewBox="0 0 13 12" version="1.1">
<g id="surface1">
<path style=" stroke:none;fill-rule:evenodd;fill:rgb(100%,100%,100%);fill-opacity:1;" d="M -0.00390625 -0.00390625 L 12.921875 -0.00390625 L 12.921875 11.976562 L -0.00390625 11.976562 Z M -0.00390625 -0.00390625 "/>
<path style=" stroke:none;fill-rule:evenodd;fill:rgb(90.196078%,90.196078%,90.196078%);fill-opacity:1;" d="M 4.039062 10.402344 L 3.554688 10.402344 C 3.285156 10.402344 3.070312 10.199219 3.070312 9.945312 L 3.070312 2.027344 C 3.070312 1.777344 3.285156 1.570312 3.554688 1.570312 L 10.335938 1.570312 C 10.601562 1.570312 10.820312 1.777344 10.820312 2.027344 L 10.820312 9.945312 C 10.820312 10.199219 10.601562 10.402344 10.335938 10.402344 Z M 4.039062 10.402344 "/>
<path style=" stroke:none;fill-rule:evenodd;fill:rgb(0%,44.313725%,73.72549%);fill-opacity:1;" d="M 3.554688 1.570312 L 10.335938 1.570312 C 10.601562 1.570312 10.820312 1.777344 10.820312 2.027344 L 10.820312 2.789062 L 3.070312 2.789062 L 3.070312 2.027344 C 3.070312 1.777344 3.285156 1.570312 3.554688 1.570312 Z M 3.554688 1.570312 "/>
<path style=" stroke:none;fill-rule:evenodd;fill:rgb(85.490196%,28.235294%,21.176471%);fill-opacity:1;" d="M 3.554688 2.027344 L 3.875 2.027344 L 3.875 2.332031 L 3.554688 2.332031 Z M 3.554688 2.027344 "/>
<path style=" stroke:none;fill-rule:evenodd;fill:rgb(97.254902%,81.176471%,14.901961%);fill-opacity:1;" d="M 4.199219 2.027344 L 4.523438 2.027344 L 4.523438 2.332031 L 4.199219 2.332031 Z M 4.199219 2.027344 "/>
<path style=" stroke:none;fill-rule:evenodd;fill:rgb(23.921569%,74.901961%,31.372549%);fill-opacity:1;" d="M 4.84375 2.027344 L 5.167969 2.027344 L 5.167969 2.332031 L 4.84375 2.332031 Z M 4.84375 2.027344 "/>
<path style=" stroke:none;fill-rule:evenodd;fill:rgb(16.078431%,67.058824%,88.627451%);fill-opacity:1;" d="M 2.101562 4.921875 L 6.621094 4.921875 L 6.621094 7.660156 L 2.101562 7.660156 Z M 2.101562 4.921875 "/>
<path style=" stroke:none;fill-rule:evenodd;fill:rgb(60%,60%,60%);fill-opacity:1;" d="M 3.714844 4.007812 L 6.78125 4.007812 L 6.78125 4.3125 L 3.714844 4.3125 Z M 3.714844 4.007812 "/>
<path style=" stroke:none;fill-rule:evenodd;fill:rgb(60%,60%,60%);fill-opacity:1;" d="M 4.359375 3.398438 L 6.78125 3.398438 L 6.78125 3.703125 L 4.359375 3.703125 Z M 4.359375 3.398438 "/>
<path style=" stroke:none;fill-rule:evenodd;fill:rgb(60%,60%,60%);fill-opacity:1;" d="M 3.714844 3.398438 L 4.039062 3.398438 L 4.039062 3.703125 L 3.714844 3.703125 Z M 3.714844 3.398438 "/>
<path style=" stroke:none;fill-rule:evenodd;fill:rgb(60%,60%,60%);fill-opacity:1;" d="M 7.75 7.507812 L 10.171875 7.507812 L 10.171875 7.8125 L 7.75 7.8125 Z M 7.75 7.507812 "/>
<path style=" stroke:none;fill-rule:evenodd;fill:rgb(60%,60%,60%);fill-opacity:1;" d="M 7.105469 7.507812 L 7.429688 7.507812 L 7.429688 7.8125 L 7.105469 7.8125 Z M 7.105469 7.507812 "/>
<path style=" stroke:none;fill-rule:evenodd;fill:rgb(94.901961%,94.901961%,94.901961%);fill-opacity:1;" d="M 3.617188 6.871094 L 2.972656 6.414062 C 2.902344 6.363281 2.886719 6.265625 2.941406 6.199219 C 2.949219 6.1875 2.960938 6.179688 2.972656 6.167969 L 3.617188 5.714844 L 3.8125 5.957031 L 3.339844 6.292969 L 3.8125 6.625 Z M 3.617188 6.871094 "/>
<path style=" stroke:none;fill-rule:evenodd;fill:rgb(94.901961%,94.901961%,94.901961%);fill-opacity:1;" d="M 5.105469 6.871094 L 4.910156 6.625 L 5.382812 6.292969 L 4.910156 5.957031 L 5.105469 5.710938 L 5.75 6.167969 C 5.820312 6.21875 5.835938 6.316406 5.78125 6.382812 C 5.773438 6.394531 5.761719 6.40625 5.75 6.414062 Z M 5.105469 6.871094 "/>
<path style=" stroke:none;fill-rule:evenodd;fill:rgb(94.901961%,94.901961%,94.901961%);fill-opacity:1;" d="M 3.886719 6.996094 L 4.535156 5.472656 L 4.835938 5.585938 L 4.1875 7.109375 Z M 3.886719 6.996094 "/>
<path style=" stroke:none;fill-rule:evenodd;fill:rgb(98.823529%,74.901961%,16.078431%);fill-opacity:1;" d="M 8.074219 6.292969 L 8.074219 5.824219 C 7.457031 5.484375 7.246094 4.742188 7.601562 4.160156 C 7.957031 3.574219 8.746094 3.375 9.367188 3.710938 C 9.984375 4.050781 10.195312 4.792969 9.839844 5.375 C 9.726562 5.5625 9.5625 5.714844 9.367188 5.824219 L 9.367188 6.292969 Z M 8.074219 6.292969 "/>
<path style=" stroke:none;fill-rule:evenodd;fill:rgb(0%,44.313725%,73.72549%);fill-opacity:1;" d="M 8.074219 6.292969 L 9.367188 6.292969 L 9.367188 6.902344 L 8.074219 6.902344 Z M 8.074219 6.292969 "/>
<path style=" stroke:none;fill-rule:evenodd;fill:rgb(94.901961%,55.294118%,0.392157%);fill-opacity:0.501961;" d="M 8.234375 5.53125 C 8.949219 5.53125 9.527344 4.988281 9.527344 4.3125 C 9.527344 4.101562 9.46875 3.894531 9.359375 3.710938 C 9.976562 4.042969 10.195312 4.785156 9.84375 5.367188 C 9.730469 5.558594 9.566406 5.714844 9.367188 5.824219 L 9.367188 6.292969 L 8.074219 6.292969 L 8.074219 5.824219 C 7.875 5.714844 7.710938 5.558594 7.597656 5.371094 C 7.792969 5.476562 8.011719 5.53125 8.234375 5.53125 Z M 8.234375 5.53125 "/>
<path style="fill:none;stroke-width:0.00219685;stroke-linecap:butt;stroke-linejoin:round;stroke:rgb(100%,100%,100%);stroke-opacity:1;stroke-miterlimit:4;" d="M 0.35024 0.268034 L 0.35024 0.222613 " transform="matrix(24.893617,0,0,23.478261,0.000000000000000983,0)"/>
<path style="fill:none;stroke-width:0.00219685;stroke-linecap:butt;stroke-linejoin:round;stroke:rgb(100%,100%,100%);stroke-opacity:1;stroke-miterlimit:4;" d="M 0.369698 0.203147 L 0.35024 0.222613 L 0.330783 0.203147 " transform="matrix(24.893617,0,0,23.478261,0.000000000000000983,0)"/>
<path style=" stroke:none;fill-rule:evenodd;fill:rgb(54.901961%,38.431373%,22.352941%);fill-opacity:1;" d="M 7.589844 6.140625 L 9.851562 6.140625 L 9.851562 6.445312 L 7.589844 6.445312 Z M 7.589844 6.140625 "/>
<path style=" stroke:none;fill-rule:evenodd;fill:rgb(85.490196%,28.235294%,21.176471%);fill-opacity:1;" d="M 8.71875 9.640625 L 10.011719 9.03125 L 8.71875 8.421875 L 2.101562 8.421875 L 2.101562 9.640625 Z M 8.71875 9.640625 "/>
<path style=" stroke:none;fill-rule:evenodd;fill:rgb(97.254902%,81.176471%,14.901961%);fill-opacity:1;" d="M 3.070312 8.421875 L 3.714844 8.421875 L 3.714844 9.640625 L 3.070312 9.640625 Z M 3.070312 8.421875 "/>
<path style=" stroke:none;fill-rule:evenodd;fill:rgb(98.431373%,69.019608%,23.137255%);fill-opacity:1;" d="M 2.101562 8.421875 L 3.070312 8.421875 L 3.070312 9.640625 L 2.101562 9.640625 Z M 2.101562 8.421875 "/>
<path style=" stroke:none;fill-rule:evenodd;fill:rgb(54.901961%,38.431373%,22.352941%);fill-opacity:1;" d="M 8.71875 8.421875 L 10.011719 9.03125 L 8.71875 9.640625 Z M 8.71875 8.421875 "/>
<path style=" stroke:none;fill-rule:evenodd;fill:rgb(96.862745%,57.647059%,11.764706%);fill-opacity:1;" d="M 3.714844 9.03125 L 8.71875 9.03125 L 8.71875 9.640625 L 3.714844 9.640625 Z M 3.714844 9.03125 "/>
</g>
</svg>
