<?xml version="1.0" encoding="UTF-8"?>
<svg xmlns="http://www.w3.org/2000/svg" xmlns:xlink="http://www.w3.org/1999/xlink" width="13pt" height="12pt" viewBox="0 0 13 12" version="1.1">
<g id="surface1">
<path style=" stroke:none;fill-rule:evenodd;fill:rgb(89.019608%,89.019608%,88.627451%);fill-opacity:1;" d="M 7.984375 2.261719 L 7.984375 2.285156 C 7.984375 2.410156 8.140625 2.53125 8.269531 2.53125 C 8.410156 2.53125 8.554688 2.394531 8.554688 2.261719 L 8.554688 2.238281 C 8.554688 2.109375 8.429688 1.992188 8.292969 1.992188 L 8.222656 1.992188 C 8.070312 1.992188 7.984375 2.117188 7.984375 2.261719 Z M 7.984375 2.261719 "/>
<path style=" stroke:none;fill-rule:evenodd;fill:rgb(98.039216%,81.568627%,42.352941%);fill-opacity:1;" d="M 9.101562 2.261719 C 9.101562 2.394531 9.242188 2.53125 9.386719 2.53125 C 9.515625 2.53125 9.671875 2.410156 9.671875 2.285156 L 9.671875 2.261719 C 9.671875 2.117188 9.582031 1.992188 9.433594 1.992188 L 9.363281 1.992188 C 9.210938 1.992188 9.101562 2.117188 9.101562 2.261719 Z M 9.101562 2.261719 "/>
<path style=" stroke:none;fill-rule:evenodd;fill:rgb(89.411765%,38.823529%,30.588235%);fill-opacity:1;" d="M 10.242188 2.214844 L 10.242188 2.328125 C 10.242188 2.414062 10.398438 2.53125 10.503906 2.53125 L 10.527344 2.53125 C 10.636719 2.53125 10.789062 2.414062 10.789062 2.328125 L 10.789062 2.214844 C 10.789062 2.101562 10.671875 1.992188 10.554688 1.992188 L 10.480469 1.992188 C 10.363281 1.992188 10.242188 2.101562 10.242188 2.214844 Z M 10.242188 2.214844 "/>
<path style=" stroke:none;fill-rule:evenodd;fill:rgb(19.215686%,67.45098%,87.45098%);fill-opacity:1;" d="M 10.242188 2.214844 C 10.242188 2.101562 10.363281 1.992188 10.480469 1.992188 L 10.554688 1.992188 C 10.671875 1.992188 10.789062 2.101562 10.789062 2.214844 L 10.789062 2.328125 C 10.789062 2.414062 10.636719 2.53125 10.527344 2.53125 L 10.503906 2.53125 C 10.398438 2.53125 10.242188 2.414062 10.242188 2.328125 Z M 9.101562 2.261719 C 9.101562 2.117188 9.210938 1.992188 9.363281 1.992188 L 9.433594 1.992188 C 9.582031 1.992188 9.671875 2.117188 9.671875 2.261719 L 9.671875 2.285156 C 9.671875 2.410156 9.515625 2.53125 9.386719 2.53125 C 9.242188 2.53125 9.101562 2.394531 9.101562 2.261719 Z M 7.984375 2.261719 C 7.984375 2.117188 8.070312 1.992188 8.222656 1.992188 L 8.292969 1.992188 C 8.429688 1.992188 8.554688 2.109375 8.554688 2.238281 L 8.554688 2.261719 C 8.554688 2.394531 8.410156 2.53125 8.269531 2.53125 C 8.140625 2.53125 7.984375 2.410156 7.984375 2.285156 Z M 0.988281 2.890625 L 11.933594 2.890625 L 11.933594 1.609375 L 0.988281 1.609375 Z M 0.988281 2.890625 "/>
<path style=" stroke:none;fill-rule:evenodd;fill:rgb(89.019608%,89.019608%,88.627451%);fill-opacity:1;" d="M 2.152344 8.320312 C 2.152344 8.214844 2.207031 8.164062 2.320312 8.164062 L 5.363281 8.164062 C 5.445312 8.164062 5.53125 8.203125 5.53125 8.277344 L 5.53125 8.367188 C 5.53125 8.4375 5.445312 8.476562 5.363281 8.476562 L 2.320312 8.476562 C 2.207031 8.476562 2.152344 8.425781 2.152344 8.320312 Z M 2.152344 7.46875 L 2.152344 7.445312 C 2.152344 7.371094 2.257812 7.3125 2.34375 7.3125 L 5.363281 7.3125 C 5.445312 7.3125 5.53125 7.351562 5.53125 7.421875 L 5.53125 7.511719 C 5.53125 7.566406 5.46875 7.625 5.414062 7.625 L 2.320312 7.625 C 2.207031 7.625 2.152344 7.574219 2.152344 7.46875 Z M 2.152344 6.617188 L 2.152344 6.59375 C 2.152344 6.519531 2.257812 6.457031 2.34375 6.457031 L 5.316406 6.457031 C 5.449219 6.457031 5.53125 6.488281 5.53125 6.617188 L 5.53125 6.660156 C 5.53125 6.710938 5.46875 6.773438 5.414062 6.773438 L 2.320312 6.773438 C 2.207031 6.773438 2.152344 6.71875 2.152344 6.617188 Z M 2.152344 5.808594 L 2.152344 5.738281 C 2.152344 5.667969 2.257812 5.605469 2.34375 5.605469 L 5.390625 5.605469 C 5.464844 5.605469 5.53125 5.675781 5.53125 5.761719 L 5.53125 5.808594 C 5.53125 5.859375 5.46875 5.917969 5.414062 5.917969 L 2.273438 5.917969 C 2.214844 5.917969 2.152344 5.859375 2.152344 5.808594 Z M 8.054688 8.050781 L 7.089844 8.316406 L 7.386719 7.402344 C 7.5625 7.152344 8.40625 6.429688 8.691406 6.160156 C 8.914062 5.949219 9.121094 5.753906 9.34375 5.542969 C 9.511719 5.386719 9.820312 5 10.101562 5 L 10.125 5 C 10.394531 5 10.601562 5.207031 10.601562 5.46875 L 10.601562 5.539062 C 10.601562 5.757812 9.570312 6.632812 9.367188 6.824219 C 9.085938 7.089844 8.316406 7.886719 8.054688 8.050781 Z M 2.152344 4.953125 L 2.152344 4.886719 C 2.152344 4.8125 2.257812 4.753906 2.34375 4.753906 L 5.339844 4.753906 C 5.429688 4.753906 5.53125 4.8125 5.53125 4.886719 L 5.53125 4.953125 C 5.53125 5.007812 5.46875 5.066406 5.414062 5.066406 L 2.273438 5.066406 C 2.214844 5.066406 2.152344 5.007812 2.152344 4.953125 Z M 0.988281 10.363281 L 11.933594 10.363281 L 11.933594 2.890625 L 0.988281 2.890625 Z M 0.988281 10.363281 "/>
<path style=" stroke:none;fill-rule:evenodd;fill:rgb(19.215686%,67.45098%,87.45098%);fill-opacity:1;" d="M 2.152344 4.953125 C 2.152344 5.007812 2.214844 5.066406 2.273438 5.066406 L 5.414062 5.066406 C 5.46875 5.066406 5.53125 5.007812 5.53125 4.953125 L 5.53125 4.886719 C 5.53125 4.8125 5.429688 4.753906 5.339844 4.753906 L 2.34375 4.753906 C 2.257812 4.753906 2.152344 4.8125 2.152344 4.886719 Z M 2.152344 4.953125 "/>
<path style=" stroke:none;fill-rule:evenodd;fill:rgb(19.215686%,67.45098%,87.45098%);fill-opacity:1;" d="M 2.152344 5.808594 C 2.152344 5.859375 2.214844 5.917969 2.273438 5.917969 L 5.414062 5.917969 C 5.46875 5.917969 5.53125 5.859375 5.53125 5.808594 L 5.53125 5.761719 C 5.53125 5.675781 5.464844 5.605469 5.390625 5.605469 L 2.34375 5.605469 C 2.257812 5.605469 2.152344 5.667969 2.152344 5.738281 Z M 2.152344 5.808594 "/>
<path style=" stroke:none;fill-rule:evenodd;fill:rgb(19.215686%,67.45098%,87.45098%);fill-opacity:1;" d="M 2.320312 6.773438 L 5.414062 6.773438 C 5.46875 6.773438 5.53125 6.710938 5.53125 6.660156 L 5.53125 6.617188 C 5.53125 6.488281 5.449219 6.457031 5.316406 6.457031 L 2.34375 6.457031 C 2.257812 6.457031 2.152344 6.519531 2.152344 6.59375 L 2.152344 6.617188 C 2.152344 6.71875 2.207031 6.773438 2.320312 6.773438 Z M 2.320312 6.773438 "/>
<path style=" stroke:none;fill-rule:evenodd;fill:rgb(74.117647%,32.156863%,25.098039%);fill-opacity:1;" d="M 8.484375 6.839844 C 8.484375 6.914062 8.523438 6.996094 8.601562 6.996094 L 8.648438 6.996094 C 8.824219 6.996094 9.253906 6.507812 9.382812 6.386719 C 9.484375 6.285156 10.054688 5.796875 10.054688 5.695312 C 10.054688 5.589844 9.996094 5.539062 9.886719 5.539062 L 9.839844 5.539062 C 9.757812 5.539062 8.484375 6.75 8.484375 6.839844 Z M 8.484375 6.839844 "/>
<path style=" stroke:none;fill-rule:evenodd;fill:rgb(19.215686%,67.45098%,87.45098%);fill-opacity:1;" d="M 2.320312 7.625 L 5.414062 7.625 C 5.46875 7.625 5.53125 7.566406 5.53125 7.511719 L 5.53125 7.421875 C 5.53125 7.351562 5.445312 7.3125 5.363281 7.3125 L 2.34375 7.3125 C 2.257812 7.3125 2.152344 7.371094 2.152344 7.445312 L 2.152344 7.46875 C 2.152344 7.574219 2.207031 7.625 2.320312 7.625 Z M 2.320312 7.625 "/>
<path style=" stroke:none;fill-rule:evenodd;fill:rgb(89.411765%,38.823529%,30.588235%);fill-opacity:1;" d="M 8.484375 6.839844 C 8.484375 6.75 9.757812 5.539062 9.839844 5.539062 L 9.886719 5.539062 C 9.996094 5.539062 10.054688 5.589844 10.054688 5.695312 C 10.054688 5.796875 9.484375 6.285156 9.382812 6.386719 C 9.253906 6.507812 8.824219 6.996094 8.648438 6.996094 L 8.601562 6.996094 C 8.523438 6.996094 8.484375 6.914062 8.484375 6.839844 Z M 7.386719 7.402344 L 8.054688 8.050781 C 8.316406 7.886719 9.085938 7.089844 9.367188 6.824219 C 9.570312 6.632812 10.601562 5.757812 10.601562 5.539062 L 10.601562 5.472656 C 10.601562 5.207031 10.394531 5 10.125 5 L 10.101562 5 C 9.820312 5 9.511719 5.386719 9.34375 5.542969 C 9.121094 5.753906 8.914062 5.949219 8.691406 6.160156 C 8.40625 6.429688 7.5625 7.152344 7.386719 7.402344 Z M 7.386719 7.402344 "/>
<path style=" stroke:none;fill-rule:evenodd;fill:rgb(74.117647%,32.156863%,25.098039%);fill-opacity:1;" d="M 8.054688 8.050781 L 7.386719 7.402344 L 7.089844 8.316406 Z M 8.054688 8.050781 "/>
<path style=" stroke:none;fill-rule:evenodd;fill:rgb(19.215686%,67.45098%,87.45098%);fill-opacity:1;" d="M 2.320312 8.476562 L 5.363281 8.476562 C 5.445312 8.476562 5.53125 8.4375 5.53125 8.367188 L 5.53125 8.277344 C 5.53125 8.203125 5.445312 8.164062 5.363281 8.164062 L 2.320312 8.164062 C 2.207031 8.164062 2.152344 8.214844 2.152344 8.320312 C 2.152344 8.425781 2.207031 8.476562 2.320312 8.476562 Z M 2.320312 8.476562 "/>
</g>
</svg>
