<?xml version="1.0" encoding="UTF-8"?>
<svg xmlns="http://www.w3.org/2000/svg" xmlns:xlink="http://www.w3.org/1999/xlink" width="13pt" height="12pt" viewBox="0 0 13 12" version="1.1">
<g id="surface1">
<path style=" stroke:none;fill-rule:evenodd;fill:rgb(100%,100%,100%);fill-opacity:1;" d="M -0.00390625 -0.00390625 L 12.921875 -0.00390625 L 12.921875 11.976562 L -0.00390625 11.976562 Z M -0.00390625 -0.00390625 "/>
<path style=" stroke:none;fill-rule:evenodd;fill:rgb(87.45098%,30.980392%,26.27451%);fill-opacity:1;" d="M 5.4375 2.546875 C 5.347656 2.546875 5.246094 2.449219 5.246094 2.367188 L 5.246094 2.296875 C 5.246094 2.222656 5.359375 2.117188 5.398438 2.117188 C 5.550781 2.117188 5.664062 2.195312 5.664062 2.332031 C 5.664062 2.449219 5.558594 2.546875 5.4375 2.546875 Z M 5.058594 2.332031 C 5.058594 2.511719 5.246094 2.6875 5.4375 2.6875 L 5.511719 2.6875 C 5.65625 2.6875 5.8125 2.492188 5.8125 2.332031 C 5.8125 2.15625 5.664062 1.976562 5.511719 1.976562 L 5.4375 1.976562 C 5.246094 1.976562 5.058594 2.152344 5.058594 2.332031 Z M 5.058594 2.332031 "/>
<path style=" stroke:none;fill-rule:evenodd;fill:rgb(95.686275%,72.54902%,6.666667%);fill-opacity:1;" d="M 6.265625 2.546875 L 6.230469 2.546875 C 6.140625 2.546875 6.039062 2.449219 6.039062 2.367188 L 6.039062 2.296875 C 6.039062 2.214844 6.140625 2.117188 6.230469 2.117188 L 6.265625 2.117188 C 6.375 2.117188 6.457031 2.242188 6.457031 2.332031 C 6.457031 2.421875 6.375 2.546875 6.265625 2.546875 Z M 5.890625 2.367188 C 5.890625 2.585938 6.070312 2.6875 6.304688 2.6875 C 6.433594 2.6875 6.605469 2.527344 6.605469 2.367188 L 6.605469 2.296875 C 6.605469 2.121094 6.453125 1.976562 6.265625 1.976562 C 6.058594 1.976562 5.890625 2.101562 5.890625 2.296875 Z M 5.890625 2.367188 "/>
<path style=" stroke:none;fill-rule:evenodd;fill:rgb(98.823529%,98.823529%,98.823529%);fill-opacity:1;" d="M 5.4375 2.546875 C 5.558594 2.546875 5.664062 2.449219 5.664062 2.332031 C 5.664062 2.195312 5.550781 2.117188 5.398438 2.117188 C 5.359375 2.117188 5.246094 2.222656 5.246094 2.296875 L 5.246094 2.367188 C 5.246094 2.449219 5.347656 2.546875 5.4375 2.546875 Z M 5.4375 2.546875 "/>
<path style=" stroke:none;fill-rule:evenodd;fill:rgb(98.823529%,98.823529%,98.823529%);fill-opacity:1;" d="M 6.265625 2.546875 C 6.375 2.546875 6.457031 2.421875 6.457031 2.332031 C 6.457031 2.242188 6.375 2.117188 6.265625 2.117188 L 6.230469 2.117188 C 6.140625 2.117188 6.039062 2.214844 6.039062 2.296875 L 6.039062 2.367188 C 6.039062 2.449219 6.140625 2.546875 6.230469 2.546875 Z M 6.265625 2.546875 "/>
<path style=" stroke:none;fill-rule:evenodd;fill:rgb(98.823529%,98.823529%,98.823529%);fill-opacity:1;" d="M 6.832031 2.332031 C 6.832031 2.429688 6.9375 2.546875 7.023438 2.546875 C 7.144531 2.546875 7.25 2.449219 7.25 2.332031 C 7.25 2.21875 7.144531 2.117188 7.023438 2.117188 C 6.914062 2.117188 6.832031 2.242188 6.832031 2.332031 Z M 6.832031 2.332031 "/>
<path style=" stroke:none;fill-rule:evenodd;fill:rgb(30.980392%,53.333333%,90.196078%);fill-opacity:1;" d="M 4.078125 2.082031 C 4.078125 1.90625 4.230469 1.761719 4.417969 1.761719 L 4.53125 1.761719 C 4.644531 1.761719 4.683594 1.796875 4.757812 1.832031 L 4.863281 1.757812 C 4.796875 1.660156 4.664062 1.585938 4.492188 1.585938 C 4.199219 1.585938 3.886719 1.816406 3.886719 2.082031 L 3.886719 2.191406 C 3.886719 2.414062 4.179688 2.6875 4.417969 2.6875 L 4.53125 2.6875 C 4.84375 2.6875 5.019531 2.410156 5.019531 2.082031 L 4.453125 2.082031 C 4.457031 2.195312 4.441406 2.261719 4.566406 2.261719 L 4.832031 2.261719 C 4.816406 2.421875 4.707031 2.511719 4.53125 2.511719 L 4.417969 2.511719 C 4.230469 2.511719 4.078125 2.367188 4.078125 2.191406 Z M 4.078125 2.082031 "/>
<path style=" stroke:none;fill-rule:evenodd;fill:rgb(98.823529%,98.823529%,98.823529%);fill-opacity:1;" d="M 7.890625 2.296875 L 8.191406 2.152344 C 8.148438 2.128906 8.152344 2.117188 8.078125 2.117188 L 8.042969 2.117188 C 7.917969 2.117188 7.898438 2.191406 7.890625 2.296875 Z M 7.890625 2.296875 "/>
<path style=" stroke:none;fill-rule:evenodd;fill:rgb(20.392157%,65.882353%,32.54902%);fill-opacity:1;" d="M 7.476562 2.652344 L 7.625 2.652344 L 7.625 1.621094 L 7.476562 1.621094 Z M 7.476562 2.652344 "/>
<path style=" stroke:none;fill-rule:evenodd;fill:rgb(87.45098%,30.980392%,26.27451%);fill-opacity:1;" d="M 7.890625 2.296875 C 7.898438 2.191406 7.917969 2.117188 8.042969 2.117188 L 8.078125 2.117188 C 8.152344 2.117188 8.148438 2.128906 8.191406 2.152344 Z M 8.378906 2.253906 C 8.34375 2.105469 8.246094 1.976562 8.042969 1.976562 C 7.855469 1.976562 7.703125 2.121094 7.703125 2.296875 L 7.703125 2.332031 C 7.703125 2.53125 7.867188 2.6875 8.078125 2.6875 C 8.246094 2.6875 8.316406 2.605469 8.382812 2.511719 L 8.230469 2.4375 C 8.191406 2.496094 8.179688 2.546875 8.078125 2.546875 C 7.976562 2.546875 7.933594 2.496094 7.890625 2.4375 Z M 8.378906 2.253906 "/>
<path style=" stroke:none;fill-rule:evenodd;fill:rgb(30.980392%,53.333333%,90.196078%);fill-opacity:1;" d="M 7.023438 2.117188 C 7.144531 2.117188 7.25 2.21875 7.25 2.332031 C 7.25 2.449219 7.144531 2.546875 7.023438 2.546875 C 6.9375 2.546875 6.832031 2.429688 6.832031 2.332031 C 6.832031 2.242188 6.914062 2.117188 7.023438 2.117188 Z M 7.210938 2.652344 L 7.210938 2.796875 C 7.136719 2.832031 7.097656 2.867188 6.984375 2.867188 C 6.894531 2.867188 6.984375 2.765625 6.71875 2.757812 C 6.734375 2.933594 6.867188 3.007812 7.058594 3.007812 C 7.28125 3.007812 7.398438 2.804688 7.398438 2.582031 L 7.398438 2.011719 C 7.054688 2.011719 6.683594 1.90625 6.683594 2.296875 L 6.683594 2.367188 C 6.683594 2.542969 6.835938 2.6875 7.023438 2.6875 C 7.125 2.6875 7.125 2.671875 7.210938 2.652344 Z M 7.210938 2.652344 "/>
<path style=" stroke:none;fill-rule:evenodd;fill:rgb(9.411765%,13.72549%,29.803922%);fill-opacity:1;" d="M 10.269531 4.824219 L 10.722656 4.824219 L 10.722656 4.503906 L 10.519531 4.011719 C 10.378906 4.113281 10.269531 4.539062 10.269531 4.824219 Z M 10.269531 4.824219 "/>
<path style=" stroke:none;fill-rule:evenodd;fill:rgb(61.176471%,62.745098%,66.666667%);fill-opacity:1;" d="M 10.269531 4.824219 L 10.609375 4.859375 L 10.761719 4.859375 C 10.761719 4.789062 10.792969 4.503906 10.722656 4.503906 L 10.722656 4.824219 Z M 10.269531 4.824219 "/>
<path style=" stroke:none;fill-rule:evenodd;fill:rgb(83.921569%,83.921569%,83.921569%);fill-opacity:1;" d="M 8.34375 5.679688 C 8.34375 5.597656 8.292969 5.503906 8.191406 5.503906 L 5.4375 5.503906 C 5.320312 5.503906 5.210938 5.535156 5.210938 5.644531 C 5.210938 5.726562 5.273438 5.789062 5.359375 5.789062 L 8.191406 5.789062 C 8.265625 5.789062 8.34375 5.722656 8.34375 5.679688 Z M 8.34375 5.679688 "/>
<path style=" stroke:none;fill-rule:evenodd;fill:rgb(83.921569%,83.921569%,83.921569%);fill-opacity:1;" d="M 8.949219 5.859375 L 5.4375 5.859375 C 5.335938 5.859375 5.332031 5.875 5.246094 5.894531 C 5.222656 5.988281 5.210938 5.960938 5.210938 6.035156 C 5.210938 6.078125 5.289062 6.144531 5.359375 6.144531 L 8.949219 6.144531 C 9.035156 6.144531 9.097656 6.085938 9.097656 6 C 9.097656 5.917969 9.035156 5.859375 8.949219 5.859375 Z M 8.949219 5.859375 "/>
<path style=" stroke:none;fill-rule:evenodd;fill:rgb(83.921569%,83.921569%,83.921569%);fill-opacity:1;" d="M 6.605469 6.355469 C 6.605469 6.273438 6.542969 6.214844 6.457031 6.214844 L 5.398438 6.214844 C 5.308594 6.214844 5.210938 6.308594 5.210938 6.394531 C 5.210938 6.4375 5.289062 6.5 5.359375 6.5 L 6.457031 6.5 C 6.542969 6.5 6.605469 6.441406 6.605469 6.355469 Z M 6.605469 6.355469 "/>
<path style=" stroke:none;fill-rule:evenodd;fill:rgb(9.411765%,13.72549%,29.803922%);fill-opacity:1;" d="M 4.152344 6 C 4.21875 5.910156 4.453125 5.757812 4.453125 5.644531 C 4.453125 5.5625 4.40625 5.46875 4.304688 5.46875 L 4.265625 5.46875 C 4.054688 5.46875 3.992188 5.625 3.851562 5.714844 C 3.757812 5.660156 3.625 5.46875 3.511719 5.46875 L 3.433594 5.46875 C 3.347656 5.46875 3.285156 5.527344 3.285156 5.609375 L 3.285156 5.679688 C 3.285156 5.789062 3.484375 5.914062 3.546875 6 C 3.449219 6.136719 3.285156 6.195312 3.285156 6.394531 C 3.285156 6.476562 3.382812 6.570312 3.472656 6.570312 C 3.59375 6.570312 3.75 6.347656 3.851562 6.285156 C 3.949219 6.347656 4.105469 6.570312 4.226562 6.570312 L 4.265625 6.570312 C 4.371094 6.570312 4.453125 6.449219 4.453125 6.355469 C 4.453125 6.28125 4.207031 6.082031 4.152344 6 Z M 4.152344 6 "/>
<path style=" stroke:none;fill-rule:evenodd;fill:rgb(83.921569%,83.921569%,83.921569%);fill-opacity:1;" d="M 6.457031 7.425781 C 6.457031 7.316406 6.34375 7.285156 6.230469 7.285156 L 3.359375 7.285156 C 3.269531 7.285156 3.207031 7.34375 3.207031 7.425781 L 3.207031 7.460938 C 3.207031 7.542969 3.234375 7.566406 3.320312 7.566406 L 6.34375 7.566406 C 6.429688 7.566406 6.457031 7.542969 6.457031 7.460938 Z M 6.457031 7.425781 "/>
<path style=" stroke:none;fill-rule:evenodd;fill:rgb(92.156863%,18.823529%,36.078431%);fill-opacity:1;" d="M 7.890625 8.457031 C 7.992188 8.457031 9.175781 7.34375 9.175781 7.246094 L 9.175781 7.210938 C 9.175781 7.039062 9.054688 6.925781 8.871094 6.925781 C 8.628906 6.925781 8.003906 7.78125 7.816406 7.78125 C 7.730469 7.78125 7.617188 7.53125 7.476562 7.53125 L 7.324219 7.53125 C 7.234375 7.53125 7.136719 7.628906 7.136719 7.710938 L 7.136719 7.851562 C 7.136719 7.945312 7.664062 8.457031 7.851562 8.457031 Z M 7.890625 8.457031 "/>
<path style=" stroke:none;fill-rule:evenodd;fill:rgb(83.921569%,83.921569%,83.921569%);fill-opacity:1;" d="M 5.550781 7.960938 C 5.550781 7.875 5.488281 7.816406 5.398438 7.816406 L 3.359375 7.816406 C 3.269531 7.816406 3.207031 7.875 3.207031 7.960938 C 3.207031 8.042969 3.269531 8.101562 3.359375 8.101562 L 5.398438 8.101562 C 5.488281 8.101562 5.550781 8.042969 5.550781 7.960938 Z M 5.550781 7.960938 "/>
<path style=" stroke:none;fill-rule:evenodd;fill:rgb(83.921569%,83.921569%,83.921569%);fill-opacity:1;" d="M 8.117188 9.171875 C 8.191406 9.171875 8.269531 9.109375 8.269531 9.0625 C 8.269531 8.988281 8.253906 9.015625 8.230469 8.921875 C 8.144531 8.902344 8.144531 8.886719 8.042969 8.886719 L 5.359375 8.886719 C 5.257812 8.886719 5.257812 8.902344 5.171875 8.921875 L 5.171875 9.0625 C 5.171875 9.144531 5.199219 9.171875 5.285156 9.171875 Z M 8.117188 9.171875 "/>
<path style=" stroke:none;fill-rule:evenodd;fill:rgb(83.921569%,83.921569%,83.921569%);fill-opacity:1;" d="M 8.871094 9.527344 C 8.960938 9.527344 9.023438 9.46875 9.023438 9.386719 C 9.023438 9.300781 8.960938 9.242188 8.871094 9.242188 L 5.359375 9.242188 C 5.257812 9.242188 5.257812 9.257812 5.171875 9.277344 L 5.171875 9.421875 C 5.171875 9.503906 5.199219 9.527344 5.285156 9.527344 Z M 8.871094 9.527344 "/>
<path style=" stroke:none;fill-rule:evenodd;fill:rgb(83.921569%,83.921569%,83.921569%);fill-opacity:1;" d="M 10.609375 9.777344 L 10.722656 9.777344 L 10.722656 10.167969 L 10.761719 4.859375 L 10.609375 4.859375 Z M 10.609375 9.777344 "/>
<path style=" stroke:none;fill-rule:evenodd;fill:rgb(83.921569%,83.921569%,83.921569%);fill-opacity:1;" d="M 6.378906 9.882812 C 6.46875 9.882812 6.53125 9.824219 6.53125 9.742188 C 6.53125 9.65625 6.46875 9.597656 6.378906 9.597656 L 5.324219 9.597656 C 5.234375 9.597656 5.171875 9.65625 5.171875 9.742188 L 5.171875 9.777344 C 5.171875 9.859375 5.199219 9.882812 5.285156 9.882812 Z M 6.378906 9.882812 "/>
<path style=" stroke:none;fill-rule:evenodd;fill:rgb(9.411765%,13.72549%,29.803922%);fill-opacity:1;" d="M 4.078125 9.386719 C 4.140625 9.292969 4.378906 9.140625 4.378906 9.027344 C 4.378906 8.945312 4.328125 8.851562 4.226562 8.851562 L 4.113281 8.851562 C 4 8.851562 3.867188 9.042969 3.773438 9.101562 C 3.683594 9.042969 3.550781 8.851562 3.433594 8.851562 L 3.359375 8.851562 C 3.269531 8.851562 3.207031 8.910156 3.207031 8.992188 L 3.207031 9.0625 C 3.207031 9.171875 3.410156 9.296875 3.472656 9.386719 C 3.375 9.519531 3.207031 9.578125 3.207031 9.777344 C 3.207031 9.859375 3.308594 9.953125 3.398438 9.953125 C 3.515625 9.953125 3.675781 9.730469 3.773438 9.667969 C 3.871094 9.730469 4.03125 9.953125 4.152344 9.953125 L 4.191406 9.953125 C 4.3125 9.953125 4.378906 9.824219 4.378906 9.707031 C 4.378906 9.675781 4.121094 9.449219 4.078125 9.386719 Z M 4.078125 9.386719 "/>
<path style=" stroke:none;fill-rule:evenodd;fill:rgb(9.411765%,13.72549%,29.803922%);fill-opacity:1;" d="M 10.722656 10.167969 L 10.722656 9.777344 L 10.269531 9.777344 L 10.269531 10.132812 C 10.269531 10.214844 10.371094 10.3125 10.457031 10.3125 L 10.496094 10.3125 C 10.648438 10.3125 10.691406 10.277344 10.722656 10.167969 Z M 10.722656 10.167969 "/>
</g>
</svg>
